0
SECTION
2
ENTITIES
0
LINE
8
OUTLINE
10
0.000
20
0.000
30
0
11
285.000
21
0.000
31
0
0
LINE
8
OUTLINE
10
285.000
20
0.000
30
0
11
330.000
21
55.000
31
0
0
LINE
8
OUTLINE
10
330.000
20
55.000
30
0
11
290.000
21
125.000
31
0
0
LINE
8
OUTLINE
10
290.000
20
125.000
30
0
11
35.000
21
135.000
31
0
0
LINE
8
OUTLINE
10
35.000
20
135.000
30
0
11
-15.000
21
85.000
31
0
0
LINE
8
OUTLINE
10
-15.000
20
85.000
30
0
11
0.000
21
0.000
31
0
0
CIRCLE
8
HOLES
10
45.000
20
72.000
30
0
40
2.000
0
CIRCLE
8
HOLES
10
145.000
20
2.000
30
0
40
2.000
0
CIRCLE
8
HOLES
10
315.000
20
72.000
30
0
40
2.000
0
CIRCLE
8
HOLES
10
290.000
20
-25.000
30
0
40
2.000
0
CIRCLE
8
HOLES
10
115.000
20
78.000
30
0
40
6.000
0
CIRCLE
8
HOLES
10
225.000
20
95.000
30
0
40
6.000
0
CIRCLE
8
MOUNT
10
100.000
20
62.000
30
0
40
1.800
0
CIRCLE
8
MOUNT
10
130.000
20
62.000
30
0
40
1.800
0
CIRCLE
8
MOUNT
10
100.000
20
94.000
30
0
40
1.800
0
CIRCLE
8
MOUNT
10
130.000
20
94.000
30
0
40
1.800
0
ENDSEC
0
EOF