0
SECTION
2
ENTITIES
0
LINE
8
L1_crank_28
10
0.000
20
-8.000
30
0
11
28.000
21
-8.000
31
0
0
LINE
8
L1_crank_28
10
28.000
20
-8.000
30
0
11
36.000
21
0.000
31
0
0
LINE
8
L1_crank_28
10
36.000
20
0.000
30
0
11
28.000
21
8.000
31
0
0
LINE
8
L1_crank_28
10
28.000
20
8.000
30
0
11
0.000
21
8.000
31
0
0
LINE
8
L1_crank_28
10
0.000
20
8.000
30
0
11
-8.000
21
0.000
31
0
0
LINE
8
L1_crank_28
10
-8.000
20
0.000
30
0
11
0.000
21
-8.000
31
0
0
CIRCLE
8
L1_crank_28
10
0.000
20
0.000
30
0
40
2.000
0
CIRCLE
8
L1_crank_28
10
28.000
20
0.000
30
0
40
2.000
0
LINE
8
L2_coupler_105
10
0.000
20
37.000
30
0
11
105.000
21
37.000
31
0
0
LINE
8
L2_coupler_105
10
105.000
20
37.000
30
0
11
113.000
21
45.000
31
0
0
LINE
8
L2_coupler_105
10
113.000
20
45.000
30
0
11
105.000
21
53.000
31
0
0
LINE
8
L2_coupler_105
10
105.000
20
53.000
30
0
11
0.000
21
53.000
31
0
0
LINE
8
L2_coupler_105
10
0.000
20
53.000
30
0
11
-8.000
21
45.000
31
0
0
LINE
8
L2_coupler_105
10
-8.000
20
45.000
30
0
11
0.000
21
37.000
31
0
0
CIRCLE
8
L2_coupler_105
10
0.000
20
45.000
30
0
40
2.000
0
CIRCLE
8
L2_coupler_105
10
105.000
20
45.000
30
0
40
2.000
0
LINE
8
L3_thigh_95
10
0.000
20
82.000
30
0
11
95.000
21
82.000
31
0
0
LINE
8
L3_thigh_95
10
95.000
20
82.000
30
0
11
103.000
21
90.000
31
0
0
LINE
8
L3_thigh_95
10
103.000
20
90.000
30
0
11
95.000
21
98.000
31
0
0
LINE
8
L3_thigh_95
10
95.000
20
98.000
30
0
11
0.000
21
98.000
31
0
0
LINE
8
L3_thigh_95
10
0.000
20
98.000
30
0
11
-8.000
21
90.000
31
0
0
LINE
8
L3_thigh_95
10
-8.000
20
90.000
30
0
11
0.000
21
82.000
31
0
0
CIRCLE
8
L3_thigh_95
10
0.000
20
90.000
30
0
40
2.000
0
CIRCLE
8
L3_thigh_95
10
95.000
20
90.000
30
0
40
2.000
0
LINE
8
L4_shank_115
10
0.000
20
127.000
30
0
11
115.000
21
127.000
31
0
0
LINE
8
L4_shank_115
10
115.000
20
127.000
30
0
11
123.000
21
135.000
31
0
0
LINE
8
L4_shank_115
10
123.000
20
135.000
30
0
11
115.000
21
143.000
31
0
0
LINE
8
L4_shank_115
10
115.000
20
143.000
30
0
11
0.000
21
143.000
31
0
0
LINE
8
L4_shank_115
10
0.000
20
143.000
30
0
11
-8.000
21
135.000
31
0
0
LINE
8
L4_shank_115
10
-8.000
20
135.000
30
0
11
0.000
21
127.000
31
0
0
CIRCLE
8
L4_shank_115
10
0.000
20
135.000
30
0
40
2.000
0
CIRCLE
8
L4_shank_115
10
115.000
20
135.000
30
0
40
2.000
0
LINE
8
L5_rear_rocker_150
10
0.000
20
171.000
30
0
11
150.000
21
171.000
31
0
0
LINE
8
L5_rear_rocker_150
10
150.000
20
171.000
30
0
11
158.000
21
180.000
31
0
0
LINE
8
L5_rear_rocker_150
10
158.000
20
180.000
30
0
11
150.000
21
189.000
31
0
0
LINE
8
L5_rear_rocker_150
10
150.000
20
189.000
30
0
11
0.000
21
189.000
31
0
0
LINE
8
L5_rear_rocker_150
10
0.000
20
189.000
30
0
11
-8.000
21
180.000
31
0
0
LINE
8
L5_rear_rocker_150
10
-8.000
20
180.000
30
0
11
0.000
21
171.000
31
0
0
CIRCLE
8
L5_rear_rocker_150
10
0.000
20
180.000
30
0
40
2.000
0
CIRCLE
8
L5_rear_rocker_150
10
150.000
20
180.000
30
0
40
2.000
0
LINE
8
tail_rod_210
10
0.000
20
226.000
30
0
11
210.000
21
226.000
31
0
0
LINE
8
tail_rod_210
10
210.000
20
226.000
30
0
11
218.000
21
235.000
31
0
0
LINE
8
tail_rod_210
10
218.000
20
235.000
30
0
11
210.000
21
244.000
31
0
0
LINE
8
tail_rod_210
10
210.000
20
244.000
30
0
11
0.000
21
244.000
31
0
0
LINE
8
tail_rod_210
10
0.000
20
244.000
30
0
11
-8.000
21
235.000
31
0
0
LINE
8
tail_rod_210
10
-8.000
20
235.000
30
0
11
0.000
21
226.000
31
0
0
CIRCLE
8
tail_rod_210
10
0.000
20
235.000
30
0
40
2.000
0
CIRCLE
8
tail_rod_210
10
210.000
20
235.000
30
0
40
2.000
0
ENDSEC
0
EOF