0
SECTION
2
HEADER
0
ENDSEC
0
SECTION
2
ENTITIES
0
CIRCLE
8
outline
10
0.000
20
0.000
30
0
40
7.000
0
CIRCLE
8
outline
10
28.000
20
0.000
30
0
40
7.000
0
LINE
8
outline
10
0.000
20
7.000
30
0
11
28.000
21
7.000
31
0
0
LINE
8
outline
10
0.000
20
-7.000
30
0
11
28.000
21
-7.000
31
0
0
CIRCLE
8
holes
10
0.000
20
0.000
30
0
40
3.200
0
CIRCLE
8
holes
10
28.000
20
0.000
30
0
40
3.200
0
TEXT
8
TEXT
10
46.000
20
-3.000
30
0
40
6.000
1
input_crank
0
CIRCLE
8
outline
10
0.000
20
-45.000
30
0
40
7.000
0
CIRCLE
8
outline
10
105.000
20
-45.000
30
0
40
7.000
0
LINE
8
outline
10
0.000
20
-38.000
30
0
11
105.000
21
-38.000
31
0
0
LINE
8
outline
10
0.000
20
-52.000
30
0
11
105.000
21
-52.000
31
0
0
CIRCLE
8
holes
10
0.000
20
-45.000
30
0
40
3.200
0
CIRCLE
8
holes
10
105.000
20
-45.000
30
0
40
3.200
0
TEXT
8
TEXT
10
123.000
20
-48.000
30
0
40
6.000
1
coupler
0
CIRCLE
8
outline
10
0.000
20
-90.000
30
0
40
9.000
0
CIRCLE
8
outline
10
95.000
20
-90.000
30
0
40
9.000
0
LINE
8
outline
10
0.000
20
-81.000
30
0
11
95.000
21
-81.000
31
0
0
LINE
8
outline
10
0.000
20
-99.000
30
0
11
95.000
21
-99.000
31
0
0
CIRCLE
8
holes
10
0.000
20
-90.000
30
0
40
3.200
0
CIRCLE
8
holes
10
95.000
20
-90.000
30
0
40
3.200
0
TEXT
8
TEXT
10
113.000
20
-93.000
30
0
40
6.000
1
thigh_rocker
0
CIRCLE
8
outline
10
0.000
20
-135.000
30
0
40
9.000
0
CIRCLE
8
outline
10
115.000
20
-135.000
30
0
40
9.000
0
LINE
8
outline
10
0.000
20
-126.000
30
0
11
115.000
21
-126.000
31
0
0
LINE
8
outline
10
0.000
20
-144.000
30
0
11
115.000
21
-144.000
31
0
0
CIRCLE
8
holes
10
0.000
20
-135.000
30
0
40
3.200
0
CIRCLE
8
holes
10
115.000
20
-135.000
30
0
40
3.200
0
TEXT
8
TEXT
10
133.000
20
-138.000
30
0
40
6.000
1
shank
0
CIRCLE
8
outline
10
0.000
20
-180.000
30
0
40
8.000
0
CIRCLE
8
outline
10
150.000
20
-180.000
30
0
40
8.000
0
LINE
8
outline
10
0.000
20
-172.000
30
0
11
150.000
21
-172.000
31
0
0
LINE
8
outline
10
0.000
20
-188.000
30
0
11
150.000
21
-188.000
31
0
0
CIRCLE
8
holes
10
0.000
20
-180.000
30
0
40
3.200
0
CIRCLE
8
holes
10
150.000
20
-180.000
30
0
40
3.200
0
TEXT
8
TEXT
10
168.000
20
-183.000
30
0
40
6.000
1
rear_rocker
0
CIRCLE
8
outline
10
0.000
20
-225.000
30
0
40
8.000
0
CIRCLE
8
outline
10
210.000
20
-225.000
30
0
40
8.000
0
LINE
8
outline
10
0.000
20
-217.000
30
0
11
210.000
21
-217.000
31
0
0
LINE
8
outline
10
0.000
20
-233.000
30
0
11
210.000
21
-233.000
31
0
0
CIRCLE
8
holes
10
0.000
20
-225.000
30
0
40
3.200
0
CIRCLE
8
holes
10
210.000
20
-225.000
30
0
40
3.200
0
TEXT
8
TEXT
10
228.000
20
-228.000
30
0
40
6.000
1
tail_rod
0
ENDSEC
0
EOF