0
SECTION
2
HEADER
0
ENDSEC
0
SECTION
2
ENTITIES
0
LINE
8
L1_crank
10
-100.000
20
-70.000
30
0
11
-74.000
21
-120.000
31
0
0
LINE
8
L2_coupler
10
-74.000
20
-120.000
30
0
11
90.000
21
-125.000
31
0
0
LINE
8
L3_thigh
10
0.000
20
0.000
30
0
11
90.000
21
-125.000
31
0
0
LINE
8
L4_shank
10
90.000
20
-125.000
30
0
11
300.000
21
-245.000
31
0
0
LINE
8
L5_rear_rocker
10
170.000
20
-70.000
30
0
11
300.000
21
-245.000
31
0
0
LINE
8
foot
10
300.000
20
-245.000
30
0
11
380.000
21
-255.000
31
0
0
LINE
8
tail
10
250.000
20
25.000
30
0
11
470.000
21
75.000
31
0
0
CIRCLE
8
holes
10
0.000
20
0.000
30
0
40
3.200
0
CIRCLE
8
joint_outline
10
0.000
20
0.000
30
0
40
8.000
0
TEXT
8
TEXT
10
6.000
20
6.000
30
0
40
7.000
1
H0
0
CIRCLE
8
holes
10
-100.000
20
-70.000
30
0
40
3.200
0
CIRCLE
8
joint_outline
10
-100.000
20
-70.000
30
0
40
8.000
0
TEXT
8
TEXT
10
-94.000
20
-64.000
30
0
40
7.000
1
H1
0
CIRCLE
8
holes
10
170.000
20
-70.000
30
0
40
3.200
0
CIRCLE
8
joint_outline
10
170.000
20
-70.000
30
0
40
8.000
0
TEXT
8
TEXT
10
176.000
20
-64.000
30
0
40
7.000
1
H2
0
CIRCLE
8
holes
10
-74.000
20
-120.000
30
0
40
3.200
0
CIRCLE
8
joint_outline
10
-74.000
20
-120.000
30
0
40
8.000
0
TEXT
8
TEXT
10
-68.000
20
-114.000
30
0
40
7.000
1
A
0
CIRCLE
8
holes
10
90.000
20
-125.000
30
0
40
3.200
0
CIRCLE
8
joint_outline
10
90.000
20
-125.000
30
0
40
8.000
0
TEXT
8
TEXT
10
96.000
20
-119.000
30
0
40
7.000
1
B
0
CIRCLE
8
holes
10
300.000
20
-245.000
30
0
40
3.200
0
CIRCLE
8
joint_outline
10
300.000
20
-245.000
30
0
40
8.000
0
TEXT
8
TEXT
10
306.000
20
-239.000
30
0
40
7.000
1
F
0
CIRCLE
8
holes
10
250.000
20
25.000
30
0
40
3.200
0
CIRCLE
8
joint_outline
10
250.000
20
25.000
30
0
40
8.000
0
TEXT
8
TEXT
10
256.000
20
31.000
30
0
40
7.000
1
T
0
CIRCLE
8
holes
10
470.000
20
75.000
30
0
40
3.200
0
CIRCLE
8
joint_outline
10
470.000
20
75.000
30
0
40
8.000
0
TEXT
8
TEXT
10
476.000
20
81.000
30
0
40
7.000
1
TailTip
0
LINE
8
body_frame
10
0.000
20
0.000
30
0
11
-100.000
21
-70.000
31
0
0
LINE
8
body_frame
10
-100.000
20
-70.000
30
0
11
170.000
21
-70.000
31
0
0
LINE
8
body_frame
10
170.000
20
-70.000
30
0
11
250.000
21
25.000
31
0
0
LINE
8
body_frame
10
250.000
20
25.000
30
0
11
0.000
21
0.000
31
0
0
ENDSEC
0
EOF