0
SECTION
2
ENTITIES
0
LINE
8
SCHEMATIC
10
-80.000
20
60.000
30
0
11
-42.412
21
46.319
31
0
0
LINE
8
SCHEMATIC
10
-42.412
20
46.319
30
0
11
76.154
21
64.811
31
0
0
LINE
8
SCHEMATIC
10
0.000
20
0.000
30
0
11
76.154
21
64.811
31
0
0
LINE
8
SCHEMATIC
10
76.154
20
64.811
30
0
11
-38.867
21
144.624
31
0
0
LINE
8
SCHEMATIC
10
120.000
20
60.000
30
0
11
-38.867
21
144.624
31
0
0
LINE
8
SCHEMATIC
10
-38.867
20
144.624
30
0
11
36.133
21
159.624
31
0
0
LINE
8
SCHEMATIC
10
200.000
20
-20.000
30
0
11
400.000
21
-60.000
31
0
0
CIRCLE
8
JOINTS
10
0.000
20
0.000
30
0
40
2.000
0
CIRCLE
8
JOINTS
10
-80.000
20
60.000
30
0
40
2.000
0
CIRCLE
8
JOINTS
10
120.000
20
60.000
30
0
40
2.000
0
CIRCLE
8
JOINTS
10
-42.412
20
46.319
30
0
40
2.000
0
CIRCLE
8
JOINTS
10
76.154
20
64.811
30
0
40
2.000
0
CIRCLE
8
JOINTS
10
-38.867
20
144.624
30
0
40
2.000
0
CIRCLE
8
JOINTS
10
200.000
20
-20.000
30
0
40
2.000
0
LINE
8
BODY
10
-125.000
20
-295.000
30
0
11
250.000
21
-295.000
31
0
0
LINE
8
BODY
10
250.000
20
-295.000
30
0
11
330.000
21
-215.000
31
0
0
LINE
8
BODY
10
330.000
20
-215.000
30
0
11
270.000
21
-130.000
31
0
0
LINE
8
BODY
10
270.000
20
-130.000
30
0
11
-110.000
21
-120.000
31
0
0
LINE
8
BODY
10
-110.000
20
-120.000
30
0
11
-165.000
21
-200.000
31
0
0
LINE
8
BODY
10
-165.000
20
-200.000
30
0
11
-125.000
21
-295.000
31
0
0
CIRCLE
8
BODY_HOLES
10
0.000
20
-250.000
30
0
40
2.000
0
CIRCLE
8
BODY_HOLES
10
-80.000
20
-190.000
30
0
40
2.000
0
CIRCLE
8
BODY_HOLES
10
120.000
20
-190.000
30
0
40
2.000
0
CIRCLE
8
BODY_HOLES
10
200.000
20
-270.000
30
0
40
2.000
0
CIRCLE
8
BODY_HOLES
10
55.000
20
-195.000
30
0
40
6.000
0
CIRCLE
8
BODY_HOLES
10
165.000
20
-160.000
30
0
40
6.000
0
LINE
8
L1
10
0.000
20
-429.000
30
0
11
40.000
21
-429.000
31
0
0
LINE
8
L1
10
40.000
20
-429.000
30
0
11
48.000
21
-420.000
31
0
0
LINE
8
L1
10
48.000
20
-420.000
30
0
11
40.000
21
-411.000
31
0
0
LINE
8
L1
10
40.000
20
-411.000
30
0
11
0.000
21
-411.000
31
0
0
LINE
8
L1
10
0.000
20
-411.000
30
0
11
-8.000
21
-420.000
31
0
0
LINE
8
L1
10
-8.000
20
-420.000
30
0
11
0.000
21
-429.000
31
0
0
CIRCLE
8
L1
10
0.000
20
-420.000
30
0
40
2.000
0
CIRCLE
8
L1
10
40.000
20
-420.000
30
0
40
2.000
0
LINE
8
L2
10
80.000
20
-429.000
30
0
11
200.000
21
-429.000
31
0
0
LINE
8
L2
10
200.000
20
-429.000
30
0
11
208.000
21
-420.000
31
0
0
LINE
8
L2
10
208.000
20
-420.000
30
0
11
200.000
21
-411.000
31
0
0
LINE
8
L2
10
200.000
20
-411.000
30
0
11
80.000
21
-411.000
31
0
0
LINE
8
L2
10
80.000
20
-411.000
30
0
11
72.000
21
-420.000
31
0
0
LINE
8
L2
10
72.000
20
-420.000
30
0
11
80.000
21
-429.000
31
0
0
CIRCLE
8
L2
10
80.000
20
-420.000
30
0
40
2.000
0
CIRCLE
8
L2
10
200.000
20
-420.000
30
0
40
2.000
0
LINE
8
L3
10
250.000
20
-429.000
30
0
11
350.000
21
-429.000
31
0
0
LINE
8
L3
10
350.000
20
-429.000
30
0
11
358.000
21
-420.000
31
0
0
LINE
8
L3
10
358.000
20
-420.000
30
0
11
350.000
21
-411.000
31
0
0
LINE
8
L3
10
350.000
20
-411.000
30
0
11
250.000
21
-411.000
31
0
0
LINE
8
L3
10
250.000
20
-411.000
30
0
11
242.000
21
-420.000
31
0
0
LINE
8
L3
10
242.000
20
-420.000
30
0
11
250.000
21
-429.000
31
0
0
CIRCLE
8
L3
10
250.000
20
-420.000
30
0
40
2.000
0
CIRCLE
8
L3
10
350.000
20
-420.000
30
0
40
2.000
0
LINE
8
L4
10
400.000
20
-429.000
30
0
11
540.000
21
-429.000
31
0
0
LINE
8
L4
10
540.000
20
-429.000
30
0
11
548.000
21
-420.000
31
0
0
LINE
8
L4
10
548.000
20
-420.000
30
0
11
540.000
21
-411.000
31
0
0
LINE
8
L4
10
540.000
20
-411.000
30
0
11
400.000
21
-411.000
31
0
0
LINE
8
L4
10
400.000
20
-411.000
30
0
11
392.000
21
-420.000
31
0
0
LINE
8
L4
10
392.000
20
-420.000
30
0
11
400.000
21
-429.000
31
0
0
CIRCLE
8
L4
10
400.000
20
-420.000
30
0
40
2.000
0
CIRCLE
8
L4
10
540.000
20
-420.000
30
0
40
2.000
0
LINE
8
L5
10
590.000
20
-429.000
30
0
11
770.000
21
-429.000
31
0
0
LINE
8
L5
10
770.000
20
-429.000
30
0
11
778.000
21
-420.000
31
0
0
LINE
8
L5
10
778.000
20
-420.000
30
0
11
770.000
21
-411.000
31
0
0
LINE
8
L5
10
770.000
20
-411.000
30
0
11
590.000
21
-411.000
31
0
0
LINE
8
L5
10
590.000
20
-411.000
30
0
11
582.000
21
-420.000
31
0
0
LINE
8
L5
10
582.000
20
-420.000
30
0
11
590.000
21
-429.000
31
0
0
CIRCLE
8
L5
10
590.000
20
-420.000
30
0
40
2.000
0
CIRCLE
8
L5
10
770.000
20
-420.000
30
0
40
2.000
0
LINE
8
TAIL
10
820.000
20
-429.000
30
0
11
1030.000
21
-429.000
31
0
0
LINE
8
TAIL
10
1030.000
20
-429.000
30
0
11
1038.000
21
-420.000
31
0
0
LINE
8
TAIL
10
1038.000
20
-420.000
30
0
11
1030.000
21
-411.000
31
0
0
LINE
8
TAIL
10
1030.000
20
-411.000
30
0
11
820.000
21
-411.000
31
0
0
LINE
8
TAIL
10
820.000
20
-411.000
30
0
11
812.000
21
-420.000
31
0
0
LINE
8
TAIL
10
812.000
20
-420.000
30
0
11
820.000
21
-429.000
31
0
0
CIRCLE
8
TAIL
10
820.000
20
-420.000
30
0
40
2.000
0
CIRCLE
8
TAIL
10
1030.000
20
-420.000
30
0
40
2.000
0
ENDSEC
0
EOF