0
SECTION
2
ENTITIES
0
LINE
8
CUT_OUTLINE
10
-165.000
20
50.000
30
0
11
-125.000
21
-45.000
31
0
0
LINE
8
CUT_OUTLINE
10
-125.000
20
-45.000
30
0
11
250.000
21
-45.000
31
0
0
LINE
8
CUT_OUTLINE
10
250.000
20
-45.000
30
0
11
330.000
21
35.000
31
0
0
LINE
8
CUT_OUTLINE
10
330.000
20
35.000
30
0
11
270.000
21
120.000
31
0
0
LINE
8
CUT_OUTLINE
10
270.000
20
120.000
30
0
11
-110.000
21
130.000
31
0
0
LINE
8
CUT_OUTLINE
10
-110.000
20
130.000
30
0
11
-165.000
21
50.000
31
0
0
CIRCLE
8
M3_H0
10
0.000
20
0.000
30
0
40
1.700
0
CIRCLE
8
BEARING_CLEARANCE_H0
10
0.000
20
0.000
30
0
40
4.200
0
CIRCLE
8
M3_H1
10
-80.000
20
60.000
30
0
40
1.700
0
CIRCLE
8
BEARING_CLEARANCE_H1
10
-80.000
20
60.000
30
0
40
4.200
0
CIRCLE
8
M3_H2
10
120.000
20
60.000
30
0
40
1.700
0
CIRCLE
8
BEARING_CLEARANCE_H2
10
120.000
20
60.000
30
0
40
4.200
0
CIRCLE
8
M3_T
10
200.000
20
-20.000
30
0
40
1.700
0
CIRCLE
8
BEARING_CLEARANCE_T
10
200.000
20
-20.000
30
0
40
4.200
0
CIRCLE
8
MOTOR_MOUNT_M3
10
-55.000
20
80.000
30
0
40
2.000
0
CIRCLE
8
MOTOR_MOUNT_M3
10
-25.000
20
80.000
30
0
40
2.000
0
CIRCLE
8
MOTOR_MOUNT_M3
10
-55.000
20
110.000
30
0
40
2.000
0
CIRCLE
8
MOTOR_MOUNT_M3
10
-25.000
20
110.000
30
0
40
2.000
0
CIRCLE
8
MOTOR_SHAFT_CLEARANCE
10
-40.000
20
95.000
30
0
40
11.000
0
CIRCLE
8
SERVO_MOUNT
10
116.000
20
82.000
30
0
40
1.400
0
CIRCLE
8
SERVO_MOUNT
10
154.000
20
82.000
30
0
40
1.400
0
CIRCLE
8
SERVO_MOUNT
10
116.000
20
108.000
30
0
40
1.400
0
CIRCLE
8
SERVO_MOUNT
10
154.000
20
108.000
30
0
40
1.400
0
LINE
8
SERVO_ENVELOPE
10
105.000
20
75.000
30
0
11
165.000
21
75.000
31
0
0
LINE
8
SERVO_ENVELOPE
10
165.000
20
75.000
30
0
11
165.000
21
116.000
31
0
0
LINE
8
SERVO_ENVELOPE
10
165.000
20
116.000
30
0
11
105.000
21
116.000
31
0
0
LINE
8
SERVO_ENVELOPE
10
105.000
20
116.000
30
0
11
105.000
21
75.000
31
0
0
CIRCLE
8
LIGHTENING
10
-115.000
20
18.000
30
0
40
14.000
0
CIRCLE
8
LIGHTENING
10
-70.000
20
10.000
30
0
40
12.000
0
CIRCLE
8
LIGHTENING
10
20.000
20
88.000
30
0
40
13.000
0
CIRCLE
8
LIGHTENING
10
70.000
20
18.000
30
0
40
14.000
0
CIRCLE
8
LIGHTENING
10
182.000
20
28.000
30
0
40
14.000
0
CIRCLE
8
LIGHTENING
10
245.000
20
50.000
30
0
40
13.000
0
CIRCLE
8
TENDON_ANCHOR
10
-85.000
20
78.000
30
0
40
1.800
0
CIRCLE
8
TENDON_ANCHOR
10
25.000
20
80.000
30
0
40
1.800
0
CIRCLE
8
TENDON_ANCHOR
10
55.000
20
92.000
30
0
40
1.800
0
ENDSEC
0
EOF