0
SECTION
2
ENTITIES
0
LINE
8
L1_crank_40_OUTLINE
10
0.000
20
8.000
30
0
11
-1.389
21
7.878
31
0
0
LINE
8
L1_crank_40_OUTLINE
10
-1.389
20
7.878
30
0
11
-2.736
21
7.518
31
0
0
LINE
8
L1_crank_40_OUTLINE
10
-2.736
20
7.518
30
0
11
-4.000
21
6.928
31
0
0
LINE
8
L1_crank_40_OUTLINE
10
-4.000
20
6.928
30
0
11
-5.142
21
6.128
31
0
0
LINE
8
L1_crank_40_OUTLINE
10
-5.142
20
6.128
30
0
11
-6.128
21
5.142
31
0
0
LINE
8
L1_crank_40_OUTLINE
10
-6.128
20
5.142
30
0
11
-6.928
21
4.000
31
0
0
LINE
8
L1_crank_40_OUTLINE
10
-6.928
20
4.000
30
0
11
-7.518
21
2.736
31
0
0
LINE
8
L1_crank_40_OUTLINE
10
-7.518
20
2.736
30
0
11
-7.878
21
1.389
31
0
0
LINE
8
L1_crank_40_OUTLINE
10
-7.878
20
1.389
30
0
11
-8.000
21
0.000
31
0
0
LINE
8
L1_crank_40_OUTLINE
10
-8.000
20
0.000
30
0
11
-7.878
21
-1.389
31
0
0
LINE
8
L1_crank_40_OUTLINE
10
-7.878
20
-1.389
30
0
11
-7.518
21
-2.736
31
0
0
LINE
8
L1_crank_40_OUTLINE
10
-7.518
20
-2.736
30
0
11
-6.928
21
-4.000
31
0
0
LINE
8
L1_crank_40_OUTLINE
10
-6.928
20
-4.000
30
0
11
-6.128
21
-5.142
31
0
0
LINE
8
L1_crank_40_OUTLINE
10
-6.128
20
-5.142
30
0
11
-5.142
21
-6.128
31
0
0
LINE
8
L1_crank_40_OUTLINE
10
-5.142
20
-6.128
30
0
11
-4.000
21
-6.928
31
0
0
LINE
8
L1_crank_40_OUTLINE
10
-4.000
20
-6.928
30
0
11
-2.736
21
-7.518
31
0
0
LINE
8
L1_crank_40_OUTLINE
10
-2.736
20
-7.518
30
0
11
-1.389
21
-7.878
31
0
0
LINE
8
L1_crank_40_OUTLINE
10
-1.389
20
-7.878
30
0
11
-0.000
21
-8.000
31
0
0
LINE
8
L1_crank_40_OUTLINE
10
-0.000
20
-8.000
30
0
11
40.000
21
-8.000
31
0
0
LINE
8
L1_crank_40_OUTLINE
10
40.000
20
-8.000
30
0
11
41.389
21
-7.878
31
0
0
LINE
8
L1_crank_40_OUTLINE
10
41.389
20
-7.878
30
0
11
42.736
21
-7.518
31
0
0
LINE
8
L1_crank_40_OUTLINE
10
42.736
20
-7.518
30
0
11
44.000
21
-6.928
31
0
0
LINE
8
L1_crank_40_OUTLINE
10
44.000
20
-6.928
30
0
11
45.142
21
-6.128
31
0
0
LINE
8
L1_crank_40_OUTLINE
10
45.142
20
-6.128
30
0
11
46.128
21
-5.142
31
0
0
LINE
8
L1_crank_40_OUTLINE
10
46.128
20
-5.142
30
0
11
46.928
21
-4.000
31
0
0
LINE
8
L1_crank_40_OUTLINE
10
46.928
20
-4.000
30
0
11
47.518
21
-2.736
31
0
0
LINE
8
L1_crank_40_OUTLINE
10
47.518
20
-2.736
30
0
11
47.878
21
-1.389
31
0
0
LINE
8
L1_crank_40_OUTLINE
10
47.878
20
-1.389
30
0
11
48.000
21
-0.000
31
0
0
LINE
8
L1_crank_40_OUTLINE
10
48.000
20
-0.000
30
0
11
47.878
21
1.389
31
0
0
LINE
8
L1_crank_40_OUTLINE
10
47.878
20
1.389
30
0
11
47.518
21
2.736
31
0
0
LINE
8
L1_crank_40_OUTLINE
10
47.518
20
2.736
30
0
11
46.928
21
4.000
31
0
0
LINE
8
L1_crank_40_OUTLINE
10
46.928
20
4.000
30
0
11
46.128
21
5.142
31
0
0
LINE
8
L1_crank_40_OUTLINE
10
46.128
20
5.142
30
0
11
45.142
21
6.128
31
0
0
LINE
8
L1_crank_40_OUTLINE
10
45.142
20
6.128
30
0
11
44.000
21
6.928
31
0
0
LINE
8
L1_crank_40_OUTLINE
10
44.000
20
6.928
30
0
11
42.736
21
7.518
31
0
0
LINE
8
L1_crank_40_OUTLINE
10
42.736
20
7.518
30
0
11
41.389
21
7.878
31
0
0
LINE
8
L1_crank_40_OUTLINE
10
41.389
20
7.878
30
0
11
40.000
21
8.000
31
0
0
LINE
8
L1_crank_40_OUTLINE
10
40.000
20
8.000
30
0
11
0.000
21
8.000
31
0
0
CIRCLE
8
L1_crank_40_M3_A
10
0.000
20
0.000
30
0
40
1.700
0
CIRCLE
8
L1_crank_40_M3_B
10
40.000
20
0.000
30
0
40
1.700
0
CIRCLE
8
L1_crank_40_BEARING_A
10
0.000
20
0.000
30
0
40
4.000
0
CIRCLE
8
L1_crank_40_BEARING_B
10
40.000
20
0.000
30
0
40
4.000
0
LINE
8
L2_coupler_120_OUTLINE
10
75.000
20
8.000
30
0
11
73.611
21
7.878
31
0
0
LINE
8
L2_coupler_120_OUTLINE
10
73.611
20
7.878
30
0
11
72.264
21
7.518
31
0
0
LINE
8
L2_coupler_120_OUTLINE
10
72.264
20
7.518
30
0
11
71.000
21
6.928
31
0
0
LINE
8
L2_coupler_120_OUTLINE
10
71.000
20
6.928
30
0
11
69.858
21
6.128
31
0
0
LINE
8
L2_coupler_120_OUTLINE
10
69.858
20
6.128
30
0
11
68.872
21
5.142
31
0
0
LINE
8
L2_coupler_120_OUTLINE
10
68.872
20
5.142
30
0
11
68.072
21
4.000
31
0
0
LINE
8
L2_coupler_120_OUTLINE
10
68.072
20
4.000
30
0
11
67.482
21
2.736
31
0
0
LINE
8
L2_coupler_120_OUTLINE
10
67.482
20
2.736
30
0
11
67.122
21
1.389
31
0
0
LINE
8
L2_coupler_120_OUTLINE
10
67.122
20
1.389
30
0
11
67.000
21
0.000
31
0
0
LINE
8
L2_coupler_120_OUTLINE
10
67.000
20
0.000
30
0
11
67.122
21
-1.389
31
0
0
LINE
8
L2_coupler_120_OUTLINE
10
67.122
20
-1.389
30
0
11
67.482
21
-2.736
31
0
0
LINE
8
L2_coupler_120_OUTLINE
10
67.482
20
-2.736
30
0
11
68.072
21
-4.000
31
0
0
LINE
8
L2_coupler_120_OUTLINE
10
68.072
20
-4.000
30
0
11
68.872
21
-5.142
31
0
0
LINE
8
L2_coupler_120_OUTLINE
10
68.872
20
-5.142
30
0
11
69.858
21
-6.128
31
0
0
LINE
8
L2_coupler_120_OUTLINE
10
69.858
20
-6.128
30
0
11
71.000
21
-6.928
31
0
0
LINE
8
L2_coupler_120_OUTLINE
10
71.000
20
-6.928
30
0
11
72.264
21
-7.518
31
0
0
LINE
8
L2_coupler_120_OUTLINE
10
72.264
20
-7.518
30
0
11
73.611
21
-7.878
31
0
0
LINE
8
L2_coupler_120_OUTLINE
10
73.611
20
-7.878
30
0
11
75.000
21
-8.000
31
0
0
LINE
8
L2_coupler_120_OUTLINE
10
75.000
20
-8.000
30
0
11
195.000
21
-8.000
31
0
0
LINE
8
L2_coupler_120_OUTLINE
10
195.000
20
-8.000
30
0
11
196.389
21
-7.878
31
0
0
LINE
8
L2_coupler_120_OUTLINE
10
196.389
20
-7.878
30
0
11
197.736
21
-7.518
31
0
0
LINE
8
L2_coupler_120_OUTLINE
10
197.736
20
-7.518
30
0
11
199.000
21
-6.928
31
0
0
LINE
8
L2_coupler_120_OUTLINE
10
199.000
20
-6.928
30
0
11
200.142
21
-6.128
31
0
0
LINE
8
L2_coupler_120_OUTLINE
10
200.142
20
-6.128
30
0
11
201.128
21
-5.142
31
0
0
LINE
8
L2_coupler_120_OUTLINE
10
201.128
20
-5.142
30
0
11
201.928
21
-4.000
31
0
0
LINE
8
L2_coupler_120_OUTLINE
10
201.928
20
-4.000
30
0
11
202.518
21
-2.736
31
0
0
LINE
8
L2_coupler_120_OUTLINE
10
202.518
20
-2.736
30
0
11
202.878
21
-1.389
31
0
0
LINE
8
L2_coupler_120_OUTLINE
10
202.878
20
-1.389
30
0
11
203.000
21
-0.000
31
0
0
LINE
8
L2_coupler_120_OUTLINE
10
203.000
20
-0.000
30
0
11
202.878
21
1.389
31
0
0
LINE
8
L2_coupler_120_OUTLINE
10
202.878
20
1.389
30
0
11
202.518
21
2.736
31
0
0
LINE
8
L2_coupler_120_OUTLINE
10
202.518
20
2.736
30
0
11
201.928
21
4.000
31
0
0
LINE
8
L2_coupler_120_OUTLINE
10
201.928
20
4.000
30
0
11
201.128
21
5.142
31
0
0
LINE
8
L2_coupler_120_OUTLINE
10
201.128
20
5.142
30
0
11
200.142
21
6.128
31
0
0
LINE
8
L2_coupler_120_OUTLINE
10
200.142
20
6.128
30
0
11
199.000
21
6.928
31
0
0
LINE
8
L2_coupler_120_OUTLINE
10
199.000
20
6.928
30
0
11
197.736
21
7.518
31
0
0
LINE
8
L2_coupler_120_OUTLINE
10
197.736
20
7.518
30
0
11
196.389
21
7.878
31
0
0
LINE
8
L2_coupler_120_OUTLINE
10
196.389
20
7.878
30
0
11
195.000
21
8.000
31
0
0
LINE
8
L2_coupler_120_OUTLINE
10
195.000
20
8.000
30
0
11
75.000
21
8.000
31
0
0
CIRCLE
8
L2_coupler_120_M3_A
10
75.000
20
0.000
30
0
40
1.700
0
CIRCLE
8
L2_coupler_120_M3_B
10
195.000
20
0.000
30
0
40
1.700
0
CIRCLE
8
L2_coupler_120_BEARING_A
10
75.000
20
0.000
30
0
40
4.000
0
CIRCLE
8
L2_coupler_120_BEARING_B
10
195.000
20
0.000
30
0
40
4.000
0
CIRCLE
8
L2_coupler_120_LIGHTENING
10
114.600
20
0.000
30
0
40
3.520
0
CIRCLE
8
L2_coupler_120_LIGHTENING
10
154.200
20
0.000
30
0
40
3.520
0
LINE
8
L3_thigh_100_OUTLINE
10
235.000
20
9.000
30
0
11
233.437
21
8.863
31
0
0
LINE
8
L3_thigh_100_OUTLINE
10
233.437
20
8.863
30
0
11
231.922
21
8.457
31
0
0
LINE
8
L3_thigh_100_OUTLINE
10
231.922
20
8.457
30
0
11
230.500
21
7.794
31
0
0
LINE
8
L3_thigh_100_OUTLINE
10
230.500
20
7.794
30
0
11
229.215
21
6.894
31
0
0
LINE
8
L3_thigh_100_OUTLINE
10
229.215
20
6.894
30
0
11
228.106
21
5.785
31
0
0
LINE
8
L3_thigh_100_OUTLINE
10
228.106
20
5.785
30
0
11
227.206
21
4.500
31
0
0
LINE
8
L3_thigh_100_OUTLINE
10
227.206
20
4.500
30
0
11
226.543
21
3.078
31
0
0
LINE
8
L3_thigh_100_OUTLINE
10
226.543
20
3.078
30
0
11
226.137
21
1.563
31
0
0
LINE
8
L3_thigh_100_OUTLINE
10
226.137
20
1.563
30
0
11
226.000
21
0.000
31
0
0
LINE
8
L3_thigh_100_OUTLINE
10
226.000
20
0.000
30
0
11
226.137
21
-1.563
31
0
0
LINE
8
L3_thigh_100_OUTLINE
10
226.137
20
-1.563
30
0
11
226.543
21
-3.078
31
0
0
LINE
8
L3_thigh_100_OUTLINE
10
226.543
20
-3.078
30
0
11
227.206
21
-4.500
31
0
0
LINE
8
L3_thigh_100_OUTLINE
10
227.206
20
-4.500
30
0
11
228.106
21
-5.785
31
0
0
LINE
8
L3_thigh_100_OUTLINE
10
228.106
20
-5.785
30
0
11
229.215
21
-6.894
31
0
0
LINE
8
L3_thigh_100_OUTLINE
10
229.215
20
-6.894
30
0
11
230.500
21
-7.794
31
0
0
LINE
8
L3_thigh_100_OUTLINE
10
230.500
20
-7.794
30
0
11
231.922
21
-8.457
31
0
0
LINE
8
L3_thigh_100_OUTLINE
10
231.922
20
-8.457
30
0
11
233.437
21
-8.863
31
0
0
LINE
8
L3_thigh_100_OUTLINE
10
233.437
20
-8.863
30
0
11
235.000
21
-9.000
31
0
0
LINE
8
L3_thigh_100_OUTLINE
10
235.000
20
-9.000
30
0
11
335.000
21
-9.000
31
0
0
LINE
8
L3_thigh_100_OUTLINE
10
335.000
20
-9.000
30
0
11
336.563
21
-8.863
31
0
0
LINE
8
L3_thigh_100_OUTLINE
10
336.563
20
-8.863
30
0
11
338.078
21
-8.457
31
0
0
LINE
8
L3_thigh_100_OUTLINE
10
338.078
20
-8.457
30
0
11
339.500
21
-7.794
31
0
0
LINE
8
L3_thigh_100_OUTLINE
10
339.500
20
-7.794
30
0
11
340.785
21
-6.894
31
0
0
LINE
8
L3_thigh_100_OUTLINE
10
340.785
20
-6.894
30
0
11
341.894
21
-5.785
31
0
0
LINE
8
L3_thigh_100_OUTLINE
10
341.894
20
-5.785
30
0
11
342.794
21
-4.500
31
0
0
LINE
8
L3_thigh_100_OUTLINE
10
342.794
20
-4.500
30
0
11
343.457
21
-3.078
31
0
0
LINE
8
L3_thigh_100_OUTLINE
10
343.457
20
-3.078
30
0
11
343.863
21
-1.563
31
0
0
LINE
8
L3_thigh_100_OUTLINE
10
343.863
20
-1.563
30
0
11
344.000
21
-0.000
31
0
0
LINE
8
L3_thigh_100_OUTLINE
10
344.000
20
-0.000
30
0
11
343.863
21
1.563
31
0
0
LINE
8
L3_thigh_100_OUTLINE
10
343.863
20
1.563
30
0
11
343.457
21
3.078
31
0
0
LINE
8
L3_thigh_100_OUTLINE
10
343.457
20
3.078
30
0
11
342.794
21
4.500
31
0
0
LINE
8
L3_thigh_100_OUTLINE
10
342.794
20
4.500
30
0
11
341.894
21
5.785
31
0
0
LINE
8
L3_thigh_100_OUTLINE
10
341.894
20
5.785
30
0
11
340.785
21
6.894
31
0
0
LINE
8
L3_thigh_100_OUTLINE
10
340.785
20
6.894
30
0
11
339.500
21
7.794
31
0
0
LINE
8
L3_thigh_100_OUTLINE
10
339.500
20
7.794
30
0
11
338.078
21
8.457
31
0
0
LINE
8
L3_thigh_100_OUTLINE
10
338.078
20
8.457
30
0
11
336.563
21
8.863
31
0
0
LINE
8
L3_thigh_100_OUTLINE
10
336.563
20
8.863
30
0
11
335.000
21
9.000
31
0
0
LINE
8
L3_thigh_100_OUTLINE
10
335.000
20
9.000
30
0
11
235.000
21
9.000
31
0
0
CIRCLE
8
L3_thigh_100_M3_A
10
235.000
20
0.000
30
0
40
1.700
0
CIRCLE
8
L3_thigh_100_M3_B
10
335.000
20
0.000
30
0
40
1.700
0
CIRCLE
8
L3_thigh_100_BEARING_A
10
235.000
20
0.000
30
0
40
4.000
0
CIRCLE
8
L3_thigh_100_BEARING_B
10
335.000
20
0.000
30
0
40
4.000
0
CIRCLE
8
L3_thigh_100_LIGHTENING
10
268.000
20
0.000
30
0
40
3.960
0
CIRCLE
8
L3_thigh_100_LIGHTENING
10
301.000
20
0.000
30
0
40
3.960
0
CIRCLE
8
L3_thigh_100_TENDON_HOOK
10
290.000
20
8.100
30
0
40
1.600
0
LINE
8
L4_shank_140_OUTLINE
10
375.000
20
9.000
30
0
11
373.437
21
8.863
31
0
0
LINE
8
L4_shank_140_OUTLINE
10
373.437
20
8.863
30
0
11
371.922
21
8.457
31
0
0
LINE
8
L4_shank_140_OUTLINE
10
371.922
20
8.457
30
0
11
370.500
21
7.794
31
0
0
LINE
8
L4_shank_140_OUTLINE
10
370.500
20
7.794
30
0
11
369.215
21
6.894
31
0
0
LINE
8
L4_shank_140_OUTLINE
10
369.215
20
6.894
30
0
11
368.106
21
5.785
31
0
0
LINE
8
L4_shank_140_OUTLINE
10
368.106
20
5.785
30
0
11
367.206
21
4.500
31
0
0
LINE
8
L4_shank_140_OUTLINE
10
367.206
20
4.500
30
0
11
366.543
21
3.078
31
0
0
LINE
8
L4_shank_140_OUTLINE
10
366.543
20
3.078
30
0
11
366.137
21
1.563
31
0
0
LINE
8
L4_shank_140_OUTLINE
10
366.137
20
1.563
30
0
11
366.000
21
0.000
31
0
0
LINE
8
L4_shank_140_OUTLINE
10
366.000
20
0.000
30
0
11
366.137
21
-1.563
31
0
0
LINE
8
L4_shank_140_OUTLINE
10
366.137
20
-1.563
30
0
11
366.543
21
-3.078
31
0
0
LINE
8
L4_shank_140_OUTLINE
10
366.543
20
-3.078
30
0
11
367.206
21
-4.500
31
0
0
LINE
8
L4_shank_140_OUTLINE
10
367.206
20
-4.500
30
0
11
368.106
21
-5.785
31
0
0
LINE
8
L4_shank_140_OUTLINE
10
368.106
20
-5.785
30
0
11
369.215
21
-6.894
31
0
0
LINE
8
L4_shank_140_OUTLINE
10
369.215
20
-6.894
30
0
11
370.500
21
-7.794
31
0
0
LINE
8
L4_shank_140_OUTLINE
10
370.500
20
-7.794
30
0
11
371.922
21
-8.457
31
0
0
LINE
8
L4_shank_140_OUTLINE
10
371.922
20
-8.457
30
0
11
373.437
21
-8.863
31
0
0
LINE
8
L4_shank_140_OUTLINE
10
373.437
20
-8.863
30
0
11
375.000
21
-9.000
31
0
0
LINE
8
L4_shank_140_OUTLINE
10
375.000
20
-9.000
30
0
11
515.000
21
-9.000
31
0
0
LINE
8
L4_shank_140_OUTLINE
10
515.000
20
-9.000
30
0
11
516.563
21
-8.863
31
0
0
LINE
8
L4_shank_140_OUTLINE
10
516.563
20
-8.863
30
0
11
518.078
21
-8.457
31
0
0
LINE
8
L4_shank_140_OUTLINE
10
518.078
20
-8.457
30
0
11
519.500
21
-7.794
31
0
0
LINE
8
L4_shank_140_OUTLINE
10
519.500
20
-7.794
30
0
11
520.785
21
-6.894
31
0
0
LINE
8
L4_shank_140_OUTLINE
10
520.785
20
-6.894
30
0
11
521.894
21
-5.785
31
0
0
LINE
8
L4_shank_140_OUTLINE
10
521.894
20
-5.785
30
0
11
522.794
21
-4.500
31
0
0
LINE
8
L4_shank_140_OUTLINE
10
522.794
20
-4.500
30
0
11
523.457
21
-3.078
31
0
0
LINE
8
L4_shank_140_OUTLINE
10
523.457
20
-3.078
30
0
11
523.863
21
-1.563
31
0
0
LINE
8
L4_shank_140_OUTLINE
10
523.863
20
-1.563
30
0
11
524.000
21
-0.000
31
0
0
LINE
8
L4_shank_140_OUTLINE
10
524.000
20
-0.000
30
0
11
523.863
21
1.563
31
0
0
LINE
8
L4_shank_140_OUTLINE
10
523.863
20
1.563
30
0
11
523.457
21
3.078
31
0
0
LINE
8
L4_shank_140_OUTLINE
10
523.457
20
3.078
30
0
11
522.794
21
4.500
31
0
0
LINE
8
L4_shank_140_OUTLINE
10
522.794
20
4.500
30
0
11
521.894
21
5.785
31
0
0
LINE
8
L4_shank_140_OUTLINE
10
521.894
20
5.785
30
0
11
520.785
21
6.894
31
0
0
LINE
8
L4_shank_140_OUTLINE
10
520.785
20
6.894
30
0
11
519.500
21
7.794
31
0
0
LINE
8
L4_shank_140_OUTLINE
10
519.500
20
7.794
30
0
11
518.078
21
8.457
31
0
0
LINE
8
L4_shank_140_OUTLINE
10
518.078
20
8.457
30
0
11
516.563
21
8.863
31
0
0
LINE
8
L4_shank_140_OUTLINE
10
516.563
20
8.863
30
0
11
515.000
21
9.000
31
0
0
LINE
8
L4_shank_140_OUTLINE
10
515.000
20
9.000
30
0
11
375.000
21
9.000
31
0
0
CIRCLE
8
L4_shank_140_M3_A
10
375.000
20
0.000
30
0
40
1.700
0
CIRCLE
8
L4_shank_140_M3_B
10
515.000
20
0.000
30
0
40
1.700
0
CIRCLE
8
L4_shank_140_BEARING_A
10
375.000
20
0.000
30
0
40
4.000
0
CIRCLE
8
L4_shank_140_BEARING_B
10
515.000
20
0.000
30
0
40
4.000
0
CIRCLE
8
L4_shank_140_LIGHTENING
10
421.200
20
0.000
30
0
40
3.960
0
CIRCLE
8
L4_shank_140_LIGHTENING
10
467.400
20
0.000
30
0
40
3.960
0
CIRCLE
8
L4_shank_140_TENDON_HOOK
10
452.000
20
8.100
30
0
40
1.600
0
LINE
8
L5_rear_rocker_180_OUTLINE
10
555.000
20
9.000
30
0
11
553.437
21
8.863
31
0
0
LINE
8
L5_rear_rocker_180_OUTLINE
10
553.437
20
8.863
30
0
11
551.922
21
8.457
31
0
0
LINE
8
L5_rear_rocker_180_OUTLINE
10
551.922
20
8.457
30
0
11
550.500
21
7.794
31
0
0
LINE
8
L5_rear_rocker_180_OUTLINE
10
550.500
20
7.794
30
0
11
549.215
21
6.894
31
0
0
LINE
8
L5_rear_rocker_180_OUTLINE
10
549.215
20
6.894
30
0
11
548.106
21
5.785
31
0
0
LINE
8
L5_rear_rocker_180_OUTLINE
10
548.106
20
5.785
30
0
11
547.206
21
4.500
31
0
0
LINE
8
L5_rear_rocker_180_OUTLINE
10
547.206
20
4.500
30
0
11
546.543
21
3.078
31
0
0
LINE
8
L5_rear_rocker_180_OUTLINE
10
546.543
20
3.078
30
0
11
546.137
21
1.563
31
0
0
LINE
8
L5_rear_rocker_180_OUTLINE
10
546.137
20
1.563
30
0
11
546.000
21
0.000
31
0
0
LINE
8
L5_rear_rocker_180_OUTLINE
10
546.000
20
0.000
30
0
11
546.137
21
-1.563
31
0
0
LINE
8
L5_rear_rocker_180_OUTLINE
10
546.137
20
-1.563
30
0
11
546.543
21
-3.078
31
0
0
LINE
8
L5_rear_rocker_180_OUTLINE
10
546.543
20
-3.078
30
0
11
547.206
21
-4.500
31
0
0
LINE
8
L5_rear_rocker_180_OUTLINE
10
547.206
20
-4.500
30
0
11
548.106
21
-5.785
31
0
0
LINE
8
L5_rear_rocker_180_OUTLINE
10
548.106
20
-5.785
30
0
11
549.215
21
-6.894
31
0
0
LINE
8
L5_rear_rocker_180_OUTLINE
10
549.215
20
-6.894
30
0
11
550.500
21
-7.794
31
0
0
LINE
8
L5_rear_rocker_180_OUTLINE
10
550.500
20
-7.794
30
0
11
551.922
21
-8.457
31
0
0
LINE
8
L5_rear_rocker_180_OUTLINE
10
551.922
20
-8.457
30
0
11
553.437
21
-8.863
31
0
0
LINE
8
L5_rear_rocker_180_OUTLINE
10
553.437
20
-8.863
30
0
11
555.000
21
-9.000
31
0
0
LINE
8
L5_rear_rocker_180_OUTLINE
10
555.000
20
-9.000
30
0
11
735.000
21
-9.000
31
0
0
LINE
8
L5_rear_rocker_180_OUTLINE
10
735.000
20
-9.000
30
0
11
736.563
21
-8.863
31
0
0
LINE
8
L5_rear_rocker_180_OUTLINE
10
736.563
20
-8.863
30
0
11
738.078
21
-8.457
31
0
0
LINE
8
L5_rear_rocker_180_OUTLINE
10
738.078
20
-8.457
30
0
11
739.500
21
-7.794
31
0
0
LINE
8
L5_rear_rocker_180_OUTLINE
10
739.500
20
-7.794
30
0
11
740.785
21
-6.894
31
0
0
LINE
8
L5_rear_rocker_180_OUTLINE
10
740.785
20
-6.894
30
0
11
741.894
21
-5.785
31
0
0
LINE
8
L5_rear_rocker_180_OUTLINE
10
741.894
20
-5.785
30
0
11
742.794
21
-4.500
31
0
0
LINE
8
L5_rear_rocker_180_OUTLINE
10
742.794
20
-4.500
30
0
11
743.457
21
-3.078
31
0
0
LINE
8
L5_rear_rocker_180_OUTLINE
10
743.457
20
-3.078
30
0
11
743.863
21
-1.563
31
0
0
LINE
8
L5_rear_rocker_180_OUTLINE
10
743.863
20
-1.563
30
0
11
744.000
21
-0.000
31
0
0
LINE
8
L5_rear_rocker_180_OUTLINE
10
744.000
20
-0.000
30
0
11
743.863
21
1.563
31
0
0
LINE
8
L5_rear_rocker_180_OUTLINE
10
743.863
20
1.563
30
0
11
743.457
21
3.078
31
0
0
LINE
8
L5_rear_rocker_180_OUTLINE
10
743.457
20
3.078
30
0
11
742.794
21
4.500
31
0
0
LINE
8
L5_rear_rocker_180_OUTLINE
10
742.794
20
4.500
30
0
11
741.894
21
5.785
31
0
0
LINE
8
L5_rear_rocker_180_OUTLINE
10
741.894
20
5.785
30
0
11
740.785
21
6.894
31
0
0
LINE
8
L5_rear_rocker_180_OUTLINE
10
740.785
20
6.894
30
0
11
739.500
21
7.794
31
0
0
LINE
8
L5_rear_rocker_180_OUTLINE
10
739.500
20
7.794
30
0
11
738.078
21
8.457
31
0
0
LINE
8
L5_rear_rocker_180_OUTLINE
10
738.078
20
8.457
30
0
11
736.563
21
8.863
31
0
0
LINE
8
L5_rear_rocker_180_OUTLINE
10
736.563
20
8.863
30
0
11
735.000
21
9.000
31
0
0
LINE
8
L5_rear_rocker_180_OUTLINE
10
735.000
20
9.000
30
0
11
555.000
21
9.000
31
0
0
CIRCLE
8
L5_rear_rocker_180_M3_A
10
555.000
20
0.000
30
0
40
1.700
0
CIRCLE
8
L5_rear_rocker_180_M3_B
10
735.000
20
0.000
30
0
40
1.700
0
CIRCLE
8
L5_rear_rocker_180_BEARING_A
10
555.000
20
0.000
30
0
40
4.000
0
CIRCLE
8
L5_rear_rocker_180_BEARING_B
10
735.000
20
0.000
30
0
40
4.000
0
CIRCLE
8
L5_rear_rocker_180_LIGHTENING
10
614.400
20
0.000
30
0
40
3.960
0
CIRCLE
8
L5_rear_rocker_180_LIGHTENING
10
673.800
20
0.000
30
0
40
3.960
0
LINE
8
foot_85_OUTLINE
10
780.000
20
12.000
30
0
11
777.916
21
11.818
31
0
0
LINE
8
foot_85_OUTLINE
10
777.916
20
11.818
30
0
11
775.896
21
11.276
31
0
0
LINE
8
foot_85_OUTLINE
10
775.896
20
11.276
30
0
11
774.000
21
10.392
31
0
0
LINE
8
foot_85_OUTLINE
10
774.000
20
10.392
30
0
11
772.287
21
9.193
31
0
0
LINE
8
foot_85_OUTLINE
10
772.287
20
9.193
30
0
11
770.807
21
7.713
31
0
0
LINE
8
foot_85_OUTLINE
10
770.807
20
7.713
30
0
11
769.608
21
6.000
31
0
0
LINE
8
foot_85_OUTLINE
10
769.608
20
6.000
30
0
11
768.724
21
4.104
31
0
0
LINE
8
foot_85_OUTLINE
10
768.724
20
4.104
30
0
11
768.182
21
2.084
31
0
0
LINE
8
foot_85_OUTLINE
10
768.182
20
2.084
30
0
11
768.000
21
0.000
31
0
0
LINE
8
foot_85_OUTLINE
10
768.000
20
0.000
30
0
11
768.182
21
-2.084
31
0
0
LINE
8
foot_85_OUTLINE
10
768.182
20
-2.084
30
0
11
768.724
21
-4.104
31
0
0
LINE
8
foot_85_OUTLINE
10
768.724
20
-4.104
30
0
11
769.608
21
-6.000
31
0
0
LINE
8
foot_85_OUTLINE
10
769.608
20
-6.000
30
0
11
770.807
21
-7.713
31
0
0
LINE
8
foot_85_OUTLINE
10
770.807
20
-7.713
30
0
11
772.287
21
-9.193
31
0
0
LINE
8
foot_85_OUTLINE
10
772.287
20
-9.193
30
0
11
774.000
21
-10.392
31
0
0
LINE
8
foot_85_OUTLINE
10
774.000
20
-10.392
30
0
11
775.896
21
-11.276
31
0
0
LINE
8
foot_85_OUTLINE
10
775.896
20
-11.276
30
0
11
777.916
21
-11.818
31
0
0
LINE
8
foot_85_OUTLINE
10
777.916
20
-11.818
30
0
11
780.000
21
-12.000
31
0
0
LINE
8
foot_85_OUTLINE
10
780.000
20
-12.000
30
0
11
865.000
21
-12.000
31
0
0
LINE
8
foot_85_OUTLINE
10
865.000
20
-12.000
30
0
11
867.084
21
-11.818
31
0
0
LINE
8
foot_85_OUTLINE
10
867.084
20
-11.818
30
0
11
869.104
21
-11.276
31
0
0
LINE
8
foot_85_OUTLINE
10
869.104
20
-11.276
30
0
11
871.000
21
-10.392
31
0
0
LINE
8
foot_85_OUTLINE
10
871.000
20
-10.392
30
0
11
872.713
21
-9.193
31
0
0
LINE
8
foot_85_OUTLINE
10
872.713
20
-9.193
30
0
11
874.193
21
-7.713
31
0
0
LINE
8
foot_85_OUTLINE
10
874.193
20
-7.713
30
0
11
875.392
21
-6.000
31
0
0
LINE
8
foot_85_OUTLINE
10
875.392
20
-6.000
30
0
11
876.276
21
-4.104
31
0
0
LINE
8
foot_85_OUTLINE
10
876.276
20
-4.104
30
0
11
876.818
21
-2.084
31
0
0
LINE
8
foot_85_OUTLINE
10
876.818
20
-2.084
30
0
11
877.000
21
-0.000
31
0
0
LINE
8
foot_85_OUTLINE
10
877.000
20
-0.000
30
0
11
876.818
21
2.084
31
0
0
LINE
8
foot_85_OUTLINE
10
876.818
20
2.084
30
0
11
876.276
21
4.104
31
0
0
LINE
8
foot_85_OUTLINE
10
876.276
20
4.104
30
0
11
875.392
21
6.000
31
0
0
LINE
8
foot_85_OUTLINE
10
875.392
20
6.000
30
0
11
874.193
21
7.713
31
0
0
LINE
8
foot_85_OUTLINE
10
874.193
20
7.713
30
0
11
872.713
21
9.193
31
0
0
LINE
8
foot_85_OUTLINE
10
872.713
20
9.193
30
0
11
871.000
21
10.392
31
0
0
LINE
8
foot_85_OUTLINE
10
871.000
20
10.392
30
0
11
869.104
21
11.276
31
0
0
LINE
8
foot_85_OUTLINE
10
869.104
20
11.276
30
0
11
867.084
21
11.818
31
0
0
LINE
8
foot_85_OUTLINE
10
867.084
20
11.818
30
0
11
865.000
21
12.000
31
0
0
LINE
8
foot_85_OUTLINE
10
865.000
20
12.000
30
0
11
780.000
21
12.000
31
0
0
CIRCLE
8
foot_85_M3_A
10
780.000
20
0.000
30
0
40
1.700
0
CIRCLE
8
foot_85_M3_B
10
865.000
20
0.000
30
0
40
1.700
0
CIRCLE
8
foot_85_BEARING_A
10
780.000
20
0.000
30
0
40
4.000
0
CIRCLE
8
foot_85_BEARING_B
10
865.000
20
0.000
30
0
40
4.000
0
CIRCLE
8
foot_85_LIGHTENING
10
808.050
20
0.000
30
0
40
5.280
0
CIRCLE
8
foot_85_LIGHTENING
10
836.100
20
0.000
30
0
40
5.280
0
LINE
8
tail_210_OUTLINE
10
910.000
20
6.000
30
0
11
908.958
21
5.909
31
0
0
LINE
8
tail_210_OUTLINE
10
908.958
20
5.909
30
0
11
907.948
21
5.638
31
0
0
LINE
8
tail_210_OUTLINE
10
907.948
20
5.638
30
0
11
907.000
21
5.196
31
0
0
LINE
8
tail_210_OUTLINE
10
907.000
20
5.196
30
0
11
906.143
21
4.596
31
0
0
LINE
8
tail_210_OUTLINE
10
906.143
20
4.596
30
0
11
905.404
21
3.857
31
0
0
LINE
8
tail_210_OUTLINE
10
905.404
20
3.857
30
0
11
904.804
21
3.000
31
0
0
LINE
8
tail_210_OUTLINE
10
904.804
20
3.000
30
0
11
904.362
21
2.052
31
0
0
LINE
8
tail_210_OUTLINE
10
904.362
20
2.052
30
0
11
904.091
21
1.042
31
0
0
LINE
8
tail_210_OUTLINE
10
904.091
20
1.042
30
0
11
904.000
21
0.000
31
0
0
LINE
8
tail_210_OUTLINE
10
904.000
20
0.000
30
0
11
904.091
21
-1.042
31
0
0
LINE
8
tail_210_OUTLINE
10
904.091
20
-1.042
30
0
11
904.362
21
-2.052
31
0
0
LINE
8
tail_210_OUTLINE
10
904.362
20
-2.052
30
0
11
904.804
21
-3.000
31
0
0
LINE
8
tail_210_OUTLINE
10
904.804
20
-3.000
30
0
11
905.404
21
-3.857
31
0
0
LINE
8
tail_210_OUTLINE
10
905.404
20
-3.857
30
0
11
906.143
21
-4.596
31
0
0
LINE
8
tail_210_OUTLINE
10
906.143
20
-4.596
30
0
11
907.000
21
-5.196
31
0
0
LINE
8
tail_210_OUTLINE
10
907.000
20
-5.196
30
0
11
907.948
21
-5.638
31
0
0
LINE
8
tail_210_OUTLINE
10
907.948
20
-5.638
30
0
11
908.958
21
-5.909
31
0
0
LINE
8
tail_210_OUTLINE
10
908.958
20
-5.909
30
0
11
910.000
21
-6.000
31
0
0
LINE
8
tail_210_OUTLINE
10
910.000
20
-6.000
30
0
11
1120.000
21
-6.000
31
0
0
LINE
8
tail_210_OUTLINE
10
1120.000
20
-6.000
30
0
11
1121.042
21
-5.909
31
0
0
LINE
8
tail_210_OUTLINE
10
1121.042
20
-5.909
30
0
11
1122.052
21
-5.638
31
0
0
LINE
8
tail_210_OUTLINE
10
1122.052
20
-5.638
30
0
11
1123.000
21
-5.196
31
0
0
LINE
8
tail_210_OUTLINE
10
1123.000
20
-5.196
30
0
11
1123.857
21
-4.596
31
0
0
LINE
8
tail_210_OUTLINE
10
1123.857
20
-4.596
30
0
11
1124.596
21
-3.857
31
0
0
LINE
8
tail_210_OUTLINE
10
1124.596
20
-3.857
30
0
11
1125.196
21
-3.000
31
0
0
LINE
8
tail_210_OUTLINE
10
1125.196
20
-3.000
30
0
11
1125.638
21
-2.052
31
0
0
LINE
8
tail_210_OUTLINE
10
1125.638
20
-2.052
30
0
11
1125.909
21
-1.042
31
0
0
LINE
8
tail_210_OUTLINE
10
1125.909
20
-1.042
30
0
11
1126.000
21
-0.000
31
0
0
LINE
8
tail_210_OUTLINE
10
1126.000
20
-0.000
30
0
11
1125.909
21
1.042
31
0
0
LINE
8
tail_210_OUTLINE
10
1125.909
20
1.042
30
0
11
1125.638
21
2.052
31
0
0
LINE
8
tail_210_OUTLINE
10
1125.638
20
2.052
30
0
11
1125.196
21
3.000
31
0
0
LINE
8
tail_210_OUTLINE
10
1125.196
20
3.000
30
0
11
1124.596
21
3.857
31
0
0
LINE
8
tail_210_OUTLINE
10
1124.596
20
3.857
30
0
11
1123.857
21
4.596
31
0
0
LINE
8
tail_210_OUTLINE
10
1123.857
20
4.596
30
0
11
1123.000
21
5.196
31
0
0
LINE
8
tail_210_OUTLINE
10
1123.000
20
5.196
30
0
11
1122.052
21
5.638
31
0
0
LINE
8
tail_210_OUTLINE
10
1122.052
20
5.638
30
0
11
1121.042
21
5.909
31
0
0
LINE
8
tail_210_OUTLINE
10
1121.042
20
5.909
30
0
11
1120.000
21
6.000
31
0
0
LINE
8
tail_210_OUTLINE
10
1120.000
20
6.000
30
0
11
910.000
21
6.000
31
0
0
CIRCLE
8
tail_210_M3_A
10
910.000
20
0.000
30
0
40
1.700
0
CIRCLE
8
tail_210_M3_B
10
1120.000
20
0.000
30
0
40
1.700
0
CIRCLE
8
tail_210_BEARING_A
10
910.000
20
0.000
30
0
40
4.000
0
CIRCLE
8
tail_210_BEARING_B
10
1120.000
20
0.000
30
0
40
4.000
0
CIRCLE
8
tail_210_LIGHTENING
10
979.300
20
0.000
30
0
40
3.000
0
CIRCLE
8
tail_210_LIGHTENING
10
1048.600
20
0.000
30
0
40
3.000
0
ENDSEC
0
EOF