solid axle_H2
  facet normal -0.995185 0 -0.0980171
    outer loop
      vertex 122.2 -18 60
      vertex 122.158 -18 60.4292
      vertex 122.158 18 60.4292
    endloop
  endfacet
  facet normal -0.995185 0 -0.0980171
    outer loop
      vertex 122.2 -18 60
      vertex 122.158 18 60.4292
      vertex 122.2 18 60
    endloop
  endfacet
  facet normal 0 1 0
    outer loop
      vertex 120 -18 60
      vertex 122.158 -18 60.4292
      vertex 122.2 -18 60
    endloop
  endfacet
  facet normal 0 -1 0
    outer loop
      vertex 120 18 60
      vertex 122.2 18 60
      vertex 122.158 18 60.4292
    endloop
  endfacet
  facet normal -0.95694 0 -0.290285
    outer loop
      vertex 122.158 -18 60.4292
      vertex 122.033 -18 60.8419
      vertex 122.033 18 60.8419
    endloop
  endfacet
  facet normal -0.95694 0 -0.290285
    outer loop
      vertex 122.158 -18 60.4292
      vertex 122.033 18 60.8419
      vertex 122.158 18 60.4292
    endloop
  endfacet
  facet normal 0 1 0
    outer loop
      vertex 120 -18 60
      vertex 122.033 -18 60.8419
      vertex 122.158 -18 60.4292
    endloop
  endfacet
  facet normal 0 -1 0
    outer loop
      vertex 120 18 60
      vertex 122.158 18 60.4292
      vertex 122.033 18 60.8419
    endloop
  endfacet
  facet normal -0.881921 0 -0.471397
    outer loop
      vertex 122.033 -18 60.8419
      vertex 121.829 -18 61.2223
      vertex 121.829 18 61.2223
    endloop
  endfacet
  facet normal -0.881921 0 -0.471397
    outer loop
      vertex 122.033 -18 60.8419
      vertex 121.829 18 61.2223
      vertex 122.033 18 60.8419
    endloop
  endfacet
  facet normal 0 1 0
    outer loop
      vertex 120 -18 60
      vertex 121.829 -18 61.2223
      vertex 122.033 -18 60.8419
    endloop
  endfacet
  facet normal 0 -1 0
    outer loop
      vertex 120 18 60
      vertex 122.033 18 60.8419
      vertex 121.829 18 61.2223
    endloop
  endfacet
  facet normal -0.77301 0 -0.634393
    outer loop
      vertex 121.829 -18 61.2223
      vertex 121.556 -18 61.5556
      vertex 121.556 18 61.5556
    endloop
  endfacet
  facet normal -0.77301 0 -0.634393
    outer loop
      vertex 121.829 -18 61.2223
      vertex 121.556 18 61.5556
      vertex 121.829 18 61.2223
    endloop
  endfacet
  facet normal 0 1 0
    outer loop
      vertex 120 -18 60
      vertex 121.556 -18 61.5556
      vertex 121.829 -18 61.2223
    endloop
  endfacet
  facet normal 0 -1 0
    outer loop
      vertex 120 18 60
      vertex 121.829 18 61.2223
      vertex 121.556 18 61.5556
    endloop
  endfacet
  facet normal -0.634393 0 -0.77301
    outer loop
      vertex 121.556 -18 61.5556
      vertex 121.222 -18 61.8292
      vertex 121.222 18 61.8292
    endloop
  endfacet
  facet normal -0.634393 0 -0.77301
    outer loop
      vertex 121.556 -18 61.5556
      vertex 121.222 18 61.8292
      vertex 121.556 18 61.5556
    endloop
  endfacet
  facet normal 0 1 0
    outer loop
      vertex 120 -18 60
      vertex 121.222 -18 61.8292
      vertex 121.556 -18 61.5556
    endloop
  endfacet
  facet normal 0 -1 0
    outer loop
      vertex 120 18 60
      vertex 121.556 18 61.5556
      vertex 121.222 18 61.8292
    endloop
  endfacet
  facet normal -0.471397 0 -0.881921
    outer loop
      vertex 121.222 -18 61.8292
      vertex 120.842 -18 62.0325
      vertex 120.842 18 62.0325
    endloop
  endfacet
  facet normal -0.471397 0 -0.881921
    outer loop
      vertex 121.222 -18 61.8292
      vertex 120.842 18 62.0325
      vertex 121.222 18 61.8292
    endloop
  endfacet
  facet normal 0 1 0
    outer loop
      vertex 120 -18 60
      vertex 120.842 -18 62.0325
      vertex 121.222 -18 61.8292
    endloop
  endfacet
  facet normal 0 -1 0
    outer loop
      vertex 120 18 60
      vertex 121.222 18 61.8292
      vertex 120.842 18 62.0325
    endloop
  endfacet
  facet normal -0.290285 0 -0.95694
    outer loop
      vertex 120.842 -18 62.0325
      vertex 120.429 -18 62.1577
      vertex 120.429 18 62.1577
    endloop
  endfacet
  facet normal -0.290285 0 -0.95694
    outer loop
      vertex 120.842 -18 62.0325
      vertex 120.429 18 62.1577
      vertex 120.842 18 62.0325
    endloop
  endfacet
  facet normal 0 1 0
    outer loop
      vertex 120 -18 60
      vertex 120.429 -18 62.1577
      vertex 120.842 -18 62.0325
    endloop
  endfacet
  facet normal 0 -1 0
    outer loop
      vertex 120 18 60
      vertex 120.842 18 62.0325
      vertex 120.429 18 62.1577
    endloop
  endfacet
  facet normal -0.0980171 0 -0.995185
    outer loop
      vertex 120.429 -18 62.1577
      vertex 120 -18 62.2
      vertex 120 18 62.2
    endloop
  endfacet
  facet normal -0.0980171 0 -0.995185
    outer loop
      vertex 120.429 -18 62.1577
      vertex 120 18 62.2
      vertex 120.429 18 62.1577
    endloop
  endfacet
  facet normal 0 1 0
    outer loop
      vertex 120 -18 60
      vertex 120 -18 62.2
      vertex 120.429 -18 62.1577
    endloop
  endfacet
  facet normal 0 -1 0
    outer loop
      vertex 120 18 60
      vertex 120.429 18 62.1577
      vertex 120 18 62.2
    endloop
  endfacet
  facet normal 0.0980171 0 -0.995185
    outer loop
      vertex 120 -18 62.2
      vertex 119.571 -18 62.1577
      vertex 119.571 18 62.1577
    endloop
  endfacet
  facet normal 0.0980171 0 -0.995185
    outer loop
      vertex 120 -18 62.2
      vertex 119.571 18 62.1577
      vertex 120 18 62.2
    endloop
  endfacet
  facet normal 0 1 -0
    outer loop
      vertex 120 -18 60
      vertex 119.571 -18 62.1577
      vertex 120 -18 62.2
    endloop
  endfacet
  facet normal 0 -1 0
    outer loop
      vertex 120 18 60
      vertex 120 18 62.2
      vertex 119.571 18 62.1577
    endloop
  endfacet
  facet normal 0.290285 0 -0.95694
    outer loop
      vertex 119.571 -18 62.1577
      vertex 119.158 -18 62.0325
      vertex 119.158 18 62.0325
    endloop
  endfacet
  facet normal 0.290285 0 -0.95694
    outer loop
      vertex 119.571 -18 62.1577
      vertex 119.158 18 62.0325
      vertex 119.571 18 62.1577
    endloop
  endfacet
  facet normal 0 1 0
    outer loop
      vertex 120 -18 60
      vertex 119.158 -18 62.0325
      vertex 119.571 -18 62.1577
    endloop
  endfacet
  facet normal 0 -1 0
    outer loop
      vertex 120 18 60
      vertex 119.571 18 62.1577
      vertex 119.158 18 62.0325
    endloop
  endfacet
  facet normal 0.471397 0 -0.881921
    outer loop
      vertex 119.158 -18 62.0325
      vertex 118.778 -18 61.8292
      vertex 118.778 18 61.8292
    endloop
  endfacet
  facet normal 0.471397 0 -0.881921
    outer loop
      vertex 119.158 -18 62.0325
      vertex 118.778 18 61.8292
      vertex 119.158 18 62.0325
    endloop
  endfacet
  facet normal 0 1 0
    outer loop
      vertex 120 -18 60
      vertex 118.778 -18 61.8292
      vertex 119.158 -18 62.0325
    endloop
  endfacet
  facet normal 0 -1 0
    outer loop
      vertex 120 18 60
      vertex 119.158 18 62.0325
      vertex 118.778 18 61.8292
    endloop
  endfacet
  facet normal 0.634393 0 -0.77301
    outer loop
      vertex 118.778 -18 61.8292
      vertex 118.444 -18 61.5556
      vertex 118.444 18 61.5556
    endloop
  endfacet
  facet normal 0.634393 0 -0.77301
    outer loop
      vertex 118.778 -18 61.8292
      vertex 118.444 18 61.5556
      vertex 118.778 18 61.8292
    endloop
  endfacet
  facet normal 0 1 0
    outer loop
      vertex 120 -18 60
      vertex 118.444 -18 61.5556
      vertex 118.778 -18 61.8292
    endloop
  endfacet
  facet normal 0 -1 0
    outer loop
      vertex 120 18 60
      vertex 118.778 18 61.8292
      vertex 118.444 18 61.5556
    endloop
  endfacet
  facet normal 0.77301 0 -0.634393
    outer loop
      vertex 118.444 -18 61.5556
      vertex 118.171 -18 61.2223
      vertex 118.171 18 61.2223
    endloop
  endfacet
  facet normal 0.77301 0 -0.634393
    outer loop
      vertex 118.444 -18 61.5556
      vertex 118.171 18 61.2223
      vertex 118.444 18 61.5556
    endloop
  endfacet
  facet normal 0 1 0
    outer loop
      vertex 120 -18 60
      vertex 118.171 -18 61.2223
      vertex 118.444 -18 61.5556
    endloop
  endfacet
  facet normal 0 -1 0
    outer loop
      vertex 120 18 60
      vertex 118.444 18 61.5556
      vertex 118.171 18 61.2223
    endloop
  endfacet
  facet normal 0.881921 0 -0.471397
    outer loop
      vertex 118.171 -18 61.2223
      vertex 117.967 -18 60.8419
      vertex 117.967 18 60.8419
    endloop
  endfacet
  facet normal 0.881921 0 -0.471397
    outer loop
      vertex 118.171 -18 61.2223
      vertex 117.967 18 60.8419
      vertex 118.171 18 61.2223
    endloop
  endfacet
  facet normal 0 1 0
    outer loop
      vertex 120 -18 60
      vertex 117.967 -18 60.8419
      vertex 118.171 -18 61.2223
    endloop
  endfacet
  facet normal 0 -1 0
    outer loop
      vertex 120 18 60
      vertex 118.171 18 61.2223
      vertex 117.967 18 60.8419
    endloop
  endfacet
  facet normal 0.95694 0 -0.290285
    outer loop
      vertex 117.967 -18 60.8419
      vertex 117.842 -18 60.4292
      vertex 117.842 18 60.4292
    endloop
  endfacet
  facet normal 0.95694 0 -0.290285
    outer loop
      vertex 117.967 -18 60.8419
      vertex 117.842 18 60.4292
      vertex 117.967 18 60.8419
    endloop
  endfacet
  facet normal 0 1 0
    outer loop
      vertex 120 -18 60
      vertex 117.842 -18 60.4292
      vertex 117.967 -18 60.8419
    endloop
  endfacet
  facet normal 0 -1 0
    outer loop
      vertex 120 18 60
      vertex 117.967 18 60.8419
      vertex 117.842 18 60.4292
    endloop
  endfacet
  facet normal 0.995185 0 -0.0980171
    outer loop
      vertex 117.842 -18 60.4292
      vertex 117.8 -18 60
      vertex 117.8 18 60
    endloop
  endfacet
  facet normal 0.995185 0 -0.0980171
    outer loop
      vertex 117.842 -18 60.4292
      vertex 117.8 18 60
      vertex 117.842 18 60.4292
    endloop
  endfacet
  facet normal 0 1 0
    outer loop
      vertex 120 -18 60
      vertex 117.8 -18 60
      vertex 117.842 -18 60.4292
    endloop
  endfacet
  facet normal 0 -1 0
    outer loop
      vertex 120 18 60
      vertex 117.842 18 60.4292
      vertex 117.8 18 60
    endloop
  endfacet
  facet normal 0.995185 0 0.0980171
    outer loop
      vertex 117.8 -18 60
      vertex 117.842 -18 59.5708
      vertex 117.842 18 59.5708
    endloop
  endfacet
  facet normal 0.995185 -0 0.0980171
    outer loop
      vertex 117.8 -18 60
      vertex 117.842 18 59.5708
      vertex 117.8 18 60
    endloop
  endfacet
  facet normal 0 1 0
    outer loop
      vertex 120 -18 60
      vertex 117.842 -18 59.5708
      vertex 117.8 -18 60
    endloop
  endfacet
  facet normal -0 -1 0
    outer loop
      vertex 120 18 60
      vertex 117.8 18 60
      vertex 117.842 18 59.5708
    endloop
  endfacet
  facet normal 0.95694 0 0.290285
    outer loop
      vertex 117.842 -18 59.5708
      vertex 117.967 -18 59.1581
      vertex 117.967 18 59.1581
    endloop
  endfacet
  facet normal 0.95694 -0 0.290285
    outer loop
      vertex 117.842 -18 59.5708
      vertex 117.967 18 59.1581
      vertex 117.842 18 59.5708
    endloop
  endfacet
  facet normal 0 1 0
    outer loop
      vertex 120 -18 60
      vertex 117.967 -18 59.1581
      vertex 117.842 -18 59.5708
    endloop
  endfacet
  facet normal 0 -1 0
    outer loop
      vertex 120 18 60
      vertex 117.842 18 59.5708
      vertex 117.967 18 59.1581
    endloop
  endfacet
  facet normal 0.881921 0 0.471397
    outer loop
      vertex 117.967 -18 59.1581
      vertex 118.171 -18 58.7777
      vertex 118.171 18 58.7777
    endloop
  endfacet
  facet normal 0.881921 -0 0.471397
    outer loop
      vertex 117.967 -18 59.1581
      vertex 118.171 18 58.7777
      vertex 117.967 18 59.1581
    endloop
  endfacet
  facet normal 0 1 0
    outer loop
      vertex 120 -18 60
      vertex 118.171 -18 58.7777
      vertex 117.967 -18 59.1581
    endloop
  endfacet
  facet normal 0 -1 0
    outer loop
      vertex 120 18 60
      vertex 117.967 18 59.1581
      vertex 118.171 18 58.7777
    endloop
  endfacet
  facet normal 0.77301 0 0.634393
    outer loop
      vertex 118.171 -18 58.7777
      vertex 118.444 -18 58.4444
      vertex 118.444 18 58.4444
    endloop
  endfacet
  facet normal 0.77301 -0 0.634393
    outer loop
      vertex 118.171 -18 58.7777
      vertex 118.444 18 58.4444
      vertex 118.171 18 58.7777
    endloop
  endfacet
  facet normal 0 1 0
    outer loop
      vertex 120 -18 60
      vertex 118.444 -18 58.4444
      vertex 118.171 -18 58.7777
    endloop
  endfacet
  facet normal 0 -1 0
    outer loop
      vertex 120 18 60
      vertex 118.171 18 58.7777
      vertex 118.444 18 58.4444
    endloop
  endfacet
  facet normal 0.634393 0 0.77301
    outer loop
      vertex 118.444 -18 58.4444
      vertex 118.778 -18 58.1708
      vertex 118.778 18 58.1708
    endloop
  endfacet
  facet normal 0.634393 -0 0.77301
    outer loop
      vertex 118.444 -18 58.4444
      vertex 118.778 18 58.1708
      vertex 118.444 18 58.4444
    endloop
  endfacet
  facet normal 0 1 0
    outer loop
      vertex 120 -18 60
      vertex 118.778 -18 58.1708
      vertex 118.444 -18 58.4444
    endloop
  endfacet
  facet normal 0 -1 0
    outer loop
      vertex 120 18 60
      vertex 118.444 18 58.4444
      vertex 118.778 18 58.1708
    endloop
  endfacet
  facet normal 0.471397 0 0.881921
    outer loop
      vertex 118.778 -18 58.1708
      vertex 119.158 -18 57.9675
      vertex 119.158 18 57.9675
    endloop
  endfacet
  facet normal 0.471397 -0 0.881921
    outer loop
      vertex 118.778 -18 58.1708
      vertex 119.158 18 57.9675
      vertex 118.778 18 58.1708
    endloop
  endfacet
  facet normal 0 1 0
    outer loop
      vertex 120 -18 60
      vertex 119.158 -18 57.9675
      vertex 118.778 -18 58.1708
    endloop
  endfacet
  facet normal 0 -1 0
    outer loop
      vertex 120 18 60
      vertex 118.778 18 58.1708
      vertex 119.158 18 57.9675
    endloop
  endfacet
  facet normal 0.290285 0 0.95694
    outer loop
      vertex 119.158 -18 57.9675
      vertex 119.571 -18 57.8423
      vertex 119.571 18 57.8423
    endloop
  endfacet
  facet normal 0.290285 -0 0.95694
    outer loop
      vertex 119.158 -18 57.9675
      vertex 119.571 18 57.8423
      vertex 119.158 18 57.9675
    endloop
  endfacet
  facet normal 0 1 0
    outer loop
      vertex 120 -18 60
      vertex 119.571 -18 57.8423
      vertex 119.158 -18 57.9675
    endloop
  endfacet
  facet normal 0 -1 0
    outer loop
      vertex 120 18 60
      vertex 119.158 18 57.9675
      vertex 119.571 18 57.8423
    endloop
  endfacet
  facet normal 0.0980171 0 0.995185
    outer loop
      vertex 119.571 -18 57.8423
      vertex 120 -18 57.8
      vertex 120 18 57.8
    endloop
  endfacet
  facet normal 0.0980171 -0 0.995185
    outer loop
      vertex 119.571 -18 57.8423
      vertex 120 18 57.8
      vertex 119.571 18 57.8423
    endloop
  endfacet
  facet normal 0 1 0
    outer loop
      vertex 120 -18 60
      vertex 120 -18 57.8
      vertex 119.571 -18 57.8423
    endloop
  endfacet
  facet normal 0 -1 -0
    outer loop
      vertex 120 18 60
      vertex 119.571 18 57.8423
      vertex 120 18 57.8
    endloop
  endfacet
  facet normal -0.0980171 0 0.995185
    outer loop
      vertex 120 -18 57.8
      vertex 120.429 -18 57.8423
      vertex 120.429 18 57.8423
    endloop
  endfacet
  facet normal -0.0980171 0 0.995185
    outer loop
      vertex 120 -18 57.8
      vertex 120.429 18 57.8423
      vertex 120 18 57.8
    endloop
  endfacet
  facet normal 0 1 0
    outer loop
      vertex 120 -18 60
      vertex 120.429 -18 57.8423
      vertex 120 -18 57.8
    endloop
  endfacet
  facet normal 0 -1 0
    outer loop
      vertex 120 18 60
      vertex 120 18 57.8
      vertex 120.429 18 57.8423
    endloop
  endfacet
  facet normal -0.290285 0 0.95694
    outer loop
      vertex 120.429 -18 57.8423
      vertex 120.842 -18 57.9675
      vertex 120.842 18 57.9675
    endloop
  endfacet
  facet normal -0.290285 0 0.95694
    outer loop
      vertex 120.429 -18 57.8423
      vertex 120.842 18 57.9675
      vertex 120.429 18 57.8423
    endloop
  endfacet
  facet normal 0 1 0
    outer loop
      vertex 120 -18 60
      vertex 120.842 -18 57.9675
      vertex 120.429 -18 57.8423
    endloop
  endfacet
  facet normal 0 -1 0
    outer loop
      vertex 120 18 60
      vertex 120.429 18 57.8423
      vertex 120.842 18 57.9675
    endloop
  endfacet
  facet normal -0.471397 0 0.881921
    outer loop
      vertex 120.842 -18 57.9675
      vertex 121.222 -18 58.1708
      vertex 121.222 18 58.1708
    endloop
  endfacet
  facet normal -0.471397 0 0.881921
    outer loop
      vertex 120.842 -18 57.9675
      vertex 121.222 18 58.1708
      vertex 120.842 18 57.9675
    endloop
  endfacet
  facet normal 0 1 0
    outer loop
      vertex 120 -18 60
      vertex 121.222 -18 58.1708
      vertex 120.842 -18 57.9675
    endloop
  endfacet
  facet normal 0 -1 0
    outer loop
      vertex 120 18 60
      vertex 120.842 18 57.9675
      vertex 121.222 18 58.1708
    endloop
  endfacet
  facet normal -0.634393 0 0.77301
    outer loop
      vertex 121.222 -18 58.1708
      vertex 121.556 -18 58.4444
      vertex 121.556 18 58.4444
    endloop
  endfacet
  facet normal -0.634393 0 0.77301
    outer loop
      vertex 121.222 -18 58.1708
      vertex 121.556 18 58.4444
      vertex 121.222 18 58.1708
    endloop
  endfacet
  facet normal 0 1 0
    outer loop
      vertex 120 -18 60
      vertex 121.556 -18 58.4444
      vertex 121.222 -18 58.1708
    endloop
  endfacet
  facet normal 0 -1 0
    outer loop
      vertex 120 18 60
      vertex 121.222 18 58.1708
      vertex 121.556 18 58.4444
    endloop
  endfacet
  facet normal -0.77301 0 0.634393
    outer loop
      vertex 121.556 -18 58.4444
      vertex 121.829 -18 58.7777
      vertex 121.829 18 58.7777
    endloop
  endfacet
  facet normal -0.77301 0 0.634393
    outer loop
      vertex 121.556 -18 58.4444
      vertex 121.829 18 58.7777
      vertex 121.556 18 58.4444
    endloop
  endfacet
  facet normal 0 1 0
    outer loop
      vertex 120 -18 60
      vertex 121.829 -18 58.7777
      vertex 121.556 -18 58.4444
    endloop
  endfacet
  facet normal 0 -1 0
    outer loop
      vertex 120 18 60
      vertex 121.556 18 58.4444
      vertex 121.829 18 58.7777
    endloop
  endfacet
  facet normal -0.881921 0 0.471397
    outer loop
      vertex 121.829 -18 58.7777
      vertex 122.033 -18 59.1581
      vertex 122.033 18 59.1581
    endloop
  endfacet
  facet normal -0.881921 0 0.471397
    outer loop
      vertex 121.829 -18 58.7777
      vertex 122.033 18 59.1581
      vertex 121.829 18 58.7777
    endloop
  endfacet
  facet normal 0 1 0
    outer loop
      vertex 120 -18 60
      vertex 122.033 -18 59.1581
      vertex 121.829 -18 58.7777
    endloop
  endfacet
  facet normal 0 -1 0
    outer loop
      vertex 120 18 60
      vertex 121.829 18 58.7777
      vertex 122.033 18 59.1581
    endloop
  endfacet
  facet normal -0.95694 0 0.290285
    outer loop
      vertex 122.033 -18 59.1581
      vertex 122.158 -18 59.5708
      vertex 122.158 18 59.5708
    endloop
  endfacet
  facet normal -0.95694 0 0.290285
    outer loop
      vertex 122.033 -18 59.1581
      vertex 122.158 18 59.5708
      vertex 122.033 18 59.1581
    endloop
  endfacet
  facet normal 0 1 0
    outer loop
      vertex 120 -18 60
      vertex 122.158 -18 59.5708
      vertex 122.033 -18 59.1581
    endloop
  endfacet
  facet normal 0 -1 0
    outer loop
      vertex 120 18 60
      vertex 122.033 18 59.1581
      vertex 122.158 18 59.5708
    endloop
  endfacet
  facet normal -0.995185 0 0.0980171
    outer loop
      vertex 122.158 -18 59.5708
      vertex 122.2 -18 60
      vertex 122.2 18 60
    endloop
  endfacet
  facet normal -0.995185 0 0.0980171
    outer loop
      vertex 122.158 -18 59.5708
      vertex 122.2 18 60
      vertex 122.158 18 59.5708
    endloop
  endfacet
  facet normal -0 1 0
    outer loop
      vertex 120 -18 60
      vertex 122.2 -18 60
      vertex 122.158 -18 59.5708
    endloop
  endfacet
  facet normal 0 -1 0
    outer loop
      vertex 120 18 60
      vertex 122.158 18 59.5708
      vertex 122.2 18 60
    endloop
  endfacet
endsolid axle_H2
