solid L1_crank_H1_A_R
  facet normal -0.258819 0 -0.965926
    outer loop
      vertex -77.2638 58.25 21.5175
      vertex -78.6108 58.25 21.8785
      vertex -78.6108 61.75 21.8785
    endloop
  endfacet
  facet normal -0.258819 0 -0.965926
    outer loop
      vertex -77.2638 58.25 21.5175
      vertex -78.6108 61.75 21.8785
      vertex -77.2638 61.75 21.5175
    endloop
  endfacet
  facet normal -0.0871557 0 -0.996195
    outer loop
      vertex -78.6108 58.25 21.8785
      vertex -80 58.25 22
      vertex -80 61.75 22
    endloop
  endfacet
  facet normal -0.0871557 0 -0.996195
    outer loop
      vertex -78.6108 58.25 21.8785
      vertex -80 61.75 22
      vertex -78.6108 61.75 21.8785
    endloop
  endfacet
  facet normal 0.0871557 0 -0.996195
    outer loop
      vertex -80 58.25 22
      vertex -81.3892 58.25 21.8785
      vertex -81.3892 61.75 21.8785
    endloop
  endfacet
  facet normal 0.0871557 0 -0.996195
    outer loop
      vertex -80 58.25 22
      vertex -81.3892 61.75 21.8785
      vertex -80 61.75 22
    endloop
  endfacet
  facet normal 0.258819 0 -0.965926
    outer loop
      vertex -81.3892 58.25 21.8785
      vertex -82.7362 58.25 21.5175
      vertex -82.7362 61.75 21.5175
    endloop
  endfacet
  facet normal 0.258819 0 -0.965926
    outer loop
      vertex -81.3892 58.25 21.8785
      vertex -82.7362 61.75 21.5175
      vertex -81.3892 61.75 21.8785
    endloop
  endfacet
  facet normal 0.422618 0 -0.906308
    outer loop
      vertex -82.7362 58.25 21.5175
      vertex -84 58.25 20.9282
      vertex -84 61.75 20.9282
    endloop
  endfacet
  facet normal 0.422618 0 -0.906308
    outer loop
      vertex -82.7362 58.25 21.5175
      vertex -84 61.75 20.9282
      vertex -82.7362 61.75 21.5175
    endloop
  endfacet
  facet normal 0.573576 0 -0.819152
    outer loop
      vertex -84 58.25 20.9282
      vertex -85.1423 58.25 20.1284
      vertex -85.1423 61.75 20.1284
    endloop
  endfacet
  facet normal 0.573576 0 -0.819152
    outer loop
      vertex -84 58.25 20.9282
      vertex -85.1423 61.75 20.1284
      vertex -84 61.75 20.9282
    endloop
  endfacet
  facet normal 0.707107 0 -0.707107
    outer loop
      vertex -85.1423 58.25 20.1284
      vertex -86.1284 58.25 19.1423
      vertex -86.1284 61.75 19.1423
    endloop
  endfacet
  facet normal 0.707107 0 -0.707107
    outer loop
      vertex -85.1423 58.25 20.1284
      vertex -86.1284 61.75 19.1423
      vertex -85.1423 61.75 20.1284
    endloop
  endfacet
  facet normal 0.819152 0 -0.573576
    outer loop
      vertex -86.1284 58.25 19.1423
      vertex -86.9282 58.25 18
      vertex -86.9282 61.75 18
    endloop
  endfacet
  facet normal 0.819152 0 -0.573576
    outer loop
      vertex -86.1284 58.25 19.1423
      vertex -86.9282 61.75 18
      vertex -86.1284 61.75 19.1423
    endloop
  endfacet
  facet normal 0.906308 0 -0.422618
    outer loop
      vertex -86.9282 58.25 18
      vertex -87.5175 58.25 16.7362
      vertex -87.5175 61.75 16.7362
    endloop
  endfacet
  facet normal 0.906308 0 -0.422618
    outer loop
      vertex -86.9282 58.25 18
      vertex -87.5175 61.75 16.7362
      vertex -86.9282 61.75 18
    endloop
  endfacet
  facet normal 0.965926 0 -0.258819
    outer loop
      vertex -87.5175 58.25 16.7362
      vertex -87.8785 58.25 15.3892
      vertex -87.8785 61.75 15.3892
    endloop
  endfacet
  facet normal 0.965926 0 -0.258819
    outer loop
      vertex -87.5175 58.25 16.7362
      vertex -87.8785 61.75 15.3892
      vertex -87.5175 61.75 16.7362
    endloop
  endfacet
  facet normal 0.996195 0 -0.0871557
    outer loop
      vertex -87.8785 58.25 15.3892
      vertex -88 58.25 14
      vertex -88 61.75 14
    endloop
  endfacet
  facet normal 0.996195 0 -0.0871557
    outer loop
      vertex -87.8785 58.25 15.3892
      vertex -88 61.75 14
      vertex -87.8785 61.75 15.3892
    endloop
  endfacet
  facet normal 0.996195 0 0.0871557
    outer loop
      vertex -88 58.25 14
      vertex -87.8785 58.25 12.6108
      vertex -87.8785 61.75 12.6108
    endloop
  endfacet
  facet normal 0.996195 -0 0.0871557
    outer loop
      vertex -88 58.25 14
      vertex -87.8785 61.75 12.6108
      vertex -88 61.75 14
    endloop
  endfacet
  facet normal 0.965926 0 0.258819
    outer loop
      vertex -87.8785 58.25 12.6108
      vertex -87.5175 58.25 11.2638
      vertex -87.5175 61.75 11.2638
    endloop
  endfacet
  facet normal 0.965926 -0 0.258819
    outer loop
      vertex -87.8785 58.25 12.6108
      vertex -87.5175 61.75 11.2638
      vertex -87.8785 61.75 12.6108
    endloop
  endfacet
  facet normal 0.906308 0 0.422618
    outer loop
      vertex -87.5175 58.25 11.2638
      vertex -86.9282 58.25 10
      vertex -86.9282 61.75 10
    endloop
  endfacet
  facet normal 0.906308 -0 0.422618
    outer loop
      vertex -87.5175 58.25 11.2638
      vertex -86.9282 61.75 10
      vertex -87.5175 61.75 11.2638
    endloop
  endfacet
  facet normal 0.819152 0 0.573576
    outer loop
      vertex -86.9282 58.25 10
      vertex -86.1284 58.25 8.8577
      vertex -86.1284 61.75 8.8577
    endloop
  endfacet
  facet normal 0.819152 -0 0.573576
    outer loop
      vertex -86.9282 58.25 10
      vertex -86.1284 61.75 8.8577
      vertex -86.9282 61.75 10
    endloop
  endfacet
  facet normal 0.707107 0 0.707107
    outer loop
      vertex -86.1284 58.25 8.8577
      vertex -85.1423 58.25 7.87164
      vertex -85.1423 61.75 7.87164
    endloop
  endfacet
  facet normal 0.707107 -0 0.707107
    outer loop
      vertex -86.1284 58.25 8.8577
      vertex -85.1423 61.75 7.87164
      vertex -86.1284 61.75 8.8577
    endloop
  endfacet
  facet normal 0.573576 0 0.819152
    outer loop
      vertex -85.1423 58.25 7.87164
      vertex -84 58.25 7.0718
      vertex -84 61.75 7.0718
    endloop
  endfacet
  facet normal 0.573576 -0 0.819152
    outer loop
      vertex -85.1423 58.25 7.87164
      vertex -84 61.75 7.0718
      vertex -85.1423 61.75 7.87164
    endloop
  endfacet
  facet normal 0.422618 0 0.906308
    outer loop
      vertex -84 58.25 7.0718
      vertex -82.7362 58.25 6.48246
      vertex -82.7362 61.75 6.48246
    endloop
  endfacet
  facet normal 0.422618 -0 0.906308
    outer loop
      vertex -84 58.25 7.0718
      vertex -82.7362 61.75 6.48246
      vertex -84 61.75 7.0718
    endloop
  endfacet
  facet normal 0.34202 0 0.939693
    outer loop
      vertex -82.7362 58.25 6.48246
      vertex -45.1485 58.25 -7.19835
      vertex -45.1485 61.75 -7.19835
    endloop
  endfacet
  facet normal 0.34202 -0 0.939693
    outer loop
      vertex -82.7362 58.25 6.48246
      vertex -45.1485 61.75 -7.19835
      vertex -82.7362 61.75 6.48246
    endloop
  endfacet
  facet normal 0.258819 0 0.965926
    outer loop
      vertex -45.1485 58.25 -7.19835
      vertex -43.8015 58.25 -7.55927
      vertex -43.8015 61.75 -7.55927
    endloop
  endfacet
  facet normal 0.258819 -0 0.965926
    outer loop
      vertex -45.1485 58.25 -7.19835
      vertex -43.8015 61.75 -7.55927
      vertex -45.1485 61.75 -7.19835
    endloop
  endfacet
  facet normal 0.0871557 0 0.996195
    outer loop
      vertex -43.8015 58.25 -7.55927
      vertex -42.4123 58.25 -7.68081
      vertex -42.4123 61.75 -7.68081
    endloop
  endfacet
  facet normal 0.0871557 -0 0.996195
    outer loop
      vertex -43.8015 58.25 -7.55927
      vertex -42.4123 61.75 -7.68081
      vertex -43.8015 61.75 -7.55927
    endloop
  endfacet
  facet normal -0.0871557 0 0.996195
    outer loop
      vertex -42.4123 58.25 -7.68081
      vertex -41.0231 58.25 -7.55927
      vertex -41.0231 61.75 -7.55927
    endloop
  endfacet
  facet normal -0.0871557 0 0.996195
    outer loop
      vertex -42.4123 58.25 -7.68081
      vertex -41.0231 61.75 -7.55927
      vertex -42.4123 61.75 -7.68081
    endloop
  endfacet
  facet normal -0.258819 0 0.965926
    outer loop
      vertex -41.0231 58.25 -7.55927
      vertex -39.6761 58.25 -7.19835
      vertex -39.6761 61.75 -7.19835
    endloop
  endfacet
  facet normal -0.258819 0 0.965926
    outer loop
      vertex -41.0231 58.25 -7.55927
      vertex -39.6761 61.75 -7.19835
      vertex -41.0231 61.75 -7.55927
    endloop
  endfacet
  facet normal -0.422618 0 0.906308
    outer loop
      vertex -39.6761 58.25 -7.19835
      vertex -38.4123 58.25 -6.60901
      vertex -38.4123 61.75 -6.60901
    endloop
  endfacet
  facet normal -0.422618 0 0.906308
    outer loop
      vertex -39.6761 58.25 -7.19835
      vertex -38.4123 61.75 -6.60901
      vertex -39.6761 61.75 -7.19835
    endloop
  endfacet
  facet normal -0.573576 0 0.819152
    outer loop
      vertex -38.4123 58.25 -6.60901
      vertex -37.27 58.25 -5.80916
      vertex -37.27 61.75 -5.80916
    endloop
  endfacet
  facet normal -0.573576 0 0.819152
    outer loop
      vertex -38.4123 58.25 -6.60901
      vertex -37.27 61.75 -5.80916
      vertex -38.4123 61.75 -6.60901
    endloop
  endfacet
  facet normal -0.707107 0 0.707107
    outer loop
      vertex -37.27 58.25 -5.80916
      vertex -36.2839 58.25 -4.82311
      vertex -36.2839 61.75 -4.82311
    endloop
  endfacet
  facet normal -0.707107 0 0.707107
    outer loop
      vertex -37.27 58.25 -5.80916
      vertex -36.2839 61.75 -4.82311
      vertex -37.27 61.75 -5.80916
    endloop
  endfacet
  facet normal -0.819152 0 0.573576
    outer loop
      vertex -36.2839 58.25 -4.82311
      vertex -35.4841 58.25 -3.68081
      vertex -35.4841 61.75 -3.68081
    endloop
  endfacet
  facet normal -0.819152 0 0.573576
    outer loop
      vertex -36.2839 58.25 -4.82311
      vertex -35.4841 61.75 -3.68081
      vertex -36.2839 61.75 -4.82311
    endloop
  endfacet
  facet normal -0.906308 0 0.422618
    outer loop
      vertex -35.4841 58.25 -3.68081
      vertex -34.8948 58.25 -2.41697
      vertex -34.8948 61.75 -2.41697
    endloop
  endfacet
  facet normal -0.906308 0 0.422618
    outer loop
      vertex -35.4841 58.25 -3.68081
      vertex -34.8948 61.75 -2.41697
      vertex -35.4841 61.75 -3.68081
    endloop
  endfacet
  facet normal -0.965926 0 0.258819
    outer loop
      vertex -34.8948 58.25 -2.41697
      vertex -34.5338 58.25 -1.06999
      vertex -34.5338 61.75 -1.06999
    endloop
  endfacet
  facet normal -0.965926 0 0.258819
    outer loop
      vertex -34.8948 58.25 -2.41697
      vertex -34.5338 61.75 -1.06999
      vertex -34.8948 61.75 -2.41697
    endloop
  endfacet
  facet normal -0.996195 0 0.0871557
    outer loop
      vertex -34.5338 58.25 -1.06999
      vertex -34.4123 58.25 0.319194
      vertex -34.4123 61.75 0.319194
    endloop
  endfacet
  facet normal -0.996195 0 0.0871557
    outer loop
      vertex -34.5338 58.25 -1.06999
      vertex -34.4123 61.75 0.319194
      vertex -34.5338 61.75 -1.06999
    endloop
  endfacet
  facet normal -0.996195 0 -0.0871557
    outer loop
      vertex -34.4123 58.25 0.319194
      vertex -34.5338 58.25 1.70838
      vertex -34.5338 61.75 1.70838
    endloop
  endfacet
  facet normal -0.996195 0 -0.0871557
    outer loop
      vertex -34.4123 58.25 0.319194
      vertex -34.5338 61.75 1.70838
      vertex -34.4123 61.75 0.319194
    endloop
  endfacet
  facet normal -0.965926 0 -0.258819
    outer loop
      vertex -34.5338 58.25 1.70838
      vertex -34.8948 58.25 3.05536
      vertex -34.8948 61.75 3.05536
    endloop
  endfacet
  facet normal -0.965926 0 -0.258819
    outer loop
      vertex -34.5338 58.25 1.70838
      vertex -34.8948 61.75 3.05536
      vertex -34.5338 61.75 1.70838
    endloop
  endfacet
  facet normal -0.906308 0 -0.422618
    outer loop
      vertex -34.8948 58.25 3.05536
      vertex -35.4841 58.25 4.31919
      vertex -35.4841 61.75 4.31919
    endloop
  endfacet
  facet normal -0.906308 0 -0.422618
    outer loop
      vertex -34.8948 58.25 3.05536
      vertex -35.4841 61.75 4.31919
      vertex -34.8948 61.75 3.05536
    endloop
  endfacet
  facet normal -0.819152 0 -0.573576
    outer loop
      vertex -35.4841 58.25 4.31919
      vertex -36.2839 58.25 5.4615
      vertex -36.2839 61.75 5.4615
    endloop
  endfacet
  facet normal -0.819152 0 -0.573576
    outer loop
      vertex -35.4841 58.25 4.31919
      vertex -36.2839 61.75 5.4615
      vertex -35.4841 61.75 4.31919
    endloop
  endfacet
  facet normal -0.707107 0 -0.707107
    outer loop
      vertex -36.2839 58.25 5.4615
      vertex -37.27 58.25 6.44755
      vertex -37.27 61.75 6.44755
    endloop
  endfacet
  facet normal -0.707107 0 -0.707107
    outer loop
      vertex -36.2839 58.25 5.4615
      vertex -37.27 61.75 6.44755
      vertex -36.2839 61.75 5.4615
    endloop
  endfacet
  facet normal -0.573576 0 -0.819152
    outer loop
      vertex -37.27 58.25 6.44755
      vertex -38.4123 58.25 7.2474
      vertex -38.4123 61.75 7.2474
    endloop
  endfacet
  facet normal -0.573576 0 -0.819152
    outer loop
      vertex -37.27 58.25 6.44755
      vertex -38.4123 61.75 7.2474
      vertex -37.27 61.75 6.44755
    endloop
  endfacet
  facet normal -0.422618 0 -0.906308
    outer loop
      vertex -38.4123 58.25 7.2474
      vertex -39.6761 58.25 7.83674
      vertex -39.6761 61.75 7.83674
    endloop
  endfacet
  facet normal -0.422618 0 -0.906308
    outer loop
      vertex -38.4123 58.25 7.2474
      vertex -39.6761 61.75 7.83674
      vertex -38.4123 61.75 7.2474
    endloop
  endfacet
  facet normal -0.34202 0 -0.939693
    outer loop
      vertex -39.6761 58.25 7.83674
      vertex -77.2638 58.25 21.5175
      vertex -77.2638 61.75 21.5175
    endloop
  endfacet
  facet normal -0.34202 0 -0.939693
    outer loop
      vertex -39.6761 58.25 7.83674
      vertex -77.2638 61.75 21.5175
      vertex -39.6761 61.75 7.83674
    endloop
  endfacet
  facet normal 0 1 0
    outer loop
      vertex -61.2061 58.25 7.1596
      vertex -78.6108 58.25 21.8785
      vertex -77.2638 58.25 21.5175
    endloop
  endfacet
  facet normal 0 -1 0
    outer loop
      vertex -61.2061 61.75 7.1596
      vertex -77.2638 61.75 21.5175
      vertex -78.6108 61.75 21.8785
    endloop
  endfacet
  facet normal 0 1 0
    outer loop
      vertex -61.2061 58.25 7.1596
      vertex -80 58.25 22
      vertex -78.6108 58.25 21.8785
    endloop
  endfacet
  facet normal 0 -1 0
    outer loop
      vertex -61.2061 61.75 7.1596
      vertex -78.6108 61.75 21.8785
      vertex -80 61.75 22
    endloop
  endfacet
  facet normal 0 1 0
    outer loop
      vertex -61.2061 58.25 7.1596
      vertex -81.3892 58.25 21.8785
      vertex -80 58.25 22
    endloop
  endfacet
  facet normal 0 -1 0
    outer loop
      vertex -61.2061 61.75 7.1596
      vertex -80 61.75 22
      vertex -81.3892 61.75 21.8785
    endloop
  endfacet
  facet normal 0 1 0
    outer loop
      vertex -61.2061 58.25 7.1596
      vertex -82.7362 58.25 21.5175
      vertex -81.3892 58.25 21.8785
    endloop
  endfacet
  facet normal 0 -1 0
    outer loop
      vertex -61.2061 61.75 7.1596
      vertex -81.3892 61.75 21.8785
      vertex -82.7362 61.75 21.5175
    endloop
  endfacet
  facet normal 0 1 0
    outer loop
      vertex -61.2061 58.25 7.1596
      vertex -84 58.25 20.9282
      vertex -82.7362 58.25 21.5175
    endloop
  endfacet
  facet normal 0 -1 0
    outer loop
      vertex -61.2061 61.75 7.1596
      vertex -82.7362 61.75 21.5175
      vertex -84 61.75 20.9282
    endloop
  endfacet
  facet normal 0 1 0
    outer loop
      vertex -61.2061 58.25 7.1596
      vertex -85.1423 58.25 20.1284
      vertex -84 58.25 20.9282
    endloop
  endfacet
  facet normal 0 -1 0
    outer loop
      vertex -61.2061 61.75 7.1596
      vertex -84 61.75 20.9282
      vertex -85.1423 61.75 20.1284
    endloop
  endfacet
  facet normal 0 1 0
    outer loop
      vertex -61.2061 58.25 7.1596
      vertex -86.1284 58.25 19.1423
      vertex -85.1423 58.25 20.1284
    endloop
  endfacet
  facet normal 0 -1 0
    outer loop
      vertex -61.2061 61.75 7.1596
      vertex -85.1423 61.75 20.1284
      vertex -86.1284 61.75 19.1423
    endloop
  endfacet
  facet normal 0 1 0
    outer loop
      vertex -61.2061 58.25 7.1596
      vertex -86.9282 58.25 18
      vertex -86.1284 58.25 19.1423
    endloop
  endfacet
  facet normal 0 -1 0
    outer loop
      vertex -61.2061 61.75 7.1596
      vertex -86.1284 61.75 19.1423
      vertex -86.9282 61.75 18
    endloop
  endfacet
  facet normal 0 1 0
    outer loop
      vertex -61.2061 58.25 7.1596
      vertex -87.5175 58.25 16.7362
      vertex -86.9282 58.25 18
    endloop
  endfacet
  facet normal 0 -1 0
    outer loop
      vertex -61.2061 61.75 7.1596
      vertex -86.9282 61.75 18
      vertex -87.5175 61.75 16.7362
    endloop
  endfacet
  facet normal 0 1 0
    outer loop
      vertex -61.2061 58.25 7.1596
      vertex -87.8785 58.25 15.3892
      vertex -87.5175 58.25 16.7362
    endloop
  endfacet
  facet normal 0 -1 0
    outer loop
      vertex -61.2061 61.75 7.1596
      vertex -87.5175 61.75 16.7362
      vertex -87.8785 61.75 15.3892
    endloop
  endfacet
  facet normal 0 1 0
    outer loop
      vertex -61.2061 58.25 7.1596
      vertex -88 58.25 14
      vertex -87.8785 58.25 15.3892
    endloop
  endfacet
  facet normal 0 -1 0
    outer loop
      vertex -61.2061 61.75 7.1596
      vertex -87.8785 61.75 15.3892
      vertex -88 61.75 14
    endloop
  endfacet
  facet normal 0 1 0
    outer loop
      vertex -61.2061 58.25 7.1596
      vertex -87.8785 58.25 12.6108
      vertex -88 58.25 14
    endloop
  endfacet
  facet normal 0 -1 0
    outer loop
      vertex -61.2061 61.75 7.1596
      vertex -88 61.75 14
      vertex -87.8785 61.75 12.6108
    endloop
  endfacet
  facet normal 0 1 0
    outer loop
      vertex -61.2061 58.25 7.1596
      vertex -87.5175 58.25 11.2638
      vertex -87.8785 58.25 12.6108
    endloop
  endfacet
  facet normal 0 -1 0
    outer loop
      vertex -61.2061 61.75 7.1596
      vertex -87.8785 61.75 12.6108
      vertex -87.5175 61.75 11.2638
    endloop
  endfacet
  facet normal 0 1 0
    outer loop
      vertex -61.2061 58.25 7.1596
      vertex -86.9282 58.25 10
      vertex -87.5175 58.25 11.2638
    endloop
  endfacet
  facet normal 0 -1 0
    outer loop
      vertex -61.2061 61.75 7.1596
      vertex -87.5175 61.75 11.2638
      vertex -86.9282 61.75 10
    endloop
  endfacet
  facet normal 0 1 0
    outer loop
      vertex -61.2061 58.25 7.1596
      vertex -86.1284 58.25 8.8577
      vertex -86.9282 58.25 10
    endloop
  endfacet
  facet normal 0 -1 0
    outer loop
      vertex -61.2061 61.75 7.1596
      vertex -86.9282 61.75 10
      vertex -86.1284 61.75 8.8577
    endloop
  endfacet
  facet normal 0 1 0
    outer loop
      vertex -61.2061 58.25 7.1596
      vertex -85.1423 58.25 7.87164
      vertex -86.1284 58.25 8.8577
    endloop
  endfacet
  facet normal 0 -1 0
    outer loop
      vertex -61.2061 61.75 7.1596
      vertex -86.1284 61.75 8.8577
      vertex -85.1423 61.75 7.87164
    endloop
  endfacet
  facet normal 0 1 0
    outer loop
      vertex -61.2061 58.25 7.1596
      vertex -84 58.25 7.0718
      vertex -85.1423 58.25 7.87164
    endloop
  endfacet
  facet normal -0 -1 0
    outer loop
      vertex -61.2061 61.75 7.1596
      vertex -85.1423 61.75 7.87164
      vertex -84 61.75 7.0718
    endloop
  endfacet
  facet normal 0 1 0
    outer loop
      vertex -61.2061 58.25 7.1596
      vertex -82.7362 58.25 6.48246
      vertex -84 58.25 7.0718
    endloop
  endfacet
  facet normal 0 -1 0
    outer loop
      vertex -61.2061 61.75 7.1596
      vertex -84 61.75 7.0718
      vertex -82.7362 61.75 6.48246
    endloop
  endfacet
  facet normal 0 1 0
    outer loop
      vertex -61.2061 58.25 7.1596
      vertex -45.1485 58.25 -7.19835
      vertex -82.7362 58.25 6.48246
    endloop
  endfacet
  facet normal 0 -1 -0
    outer loop
      vertex -61.2061 61.75 7.1596
      vertex -82.7362 61.75 6.48246
      vertex -45.1485 61.75 -7.19835
    endloop
  endfacet
  facet normal 0 1 0
    outer loop
      vertex -61.2061 58.25 7.1596
      vertex -43.8015 58.25 -7.55927
      vertex -45.1485 58.25 -7.19835
    endloop
  endfacet
  facet normal 0 -1 0
    outer loop
      vertex -61.2061 61.75 7.1596
      vertex -45.1485 61.75 -7.19835
      vertex -43.8015 61.75 -7.55927
    endloop
  endfacet
  facet normal 0 1 0
    outer loop
      vertex -61.2061 58.25 7.1596
      vertex -42.4123 58.25 -7.68081
      vertex -43.8015 58.25 -7.55927
    endloop
  endfacet
  facet normal 0 -1 0
    outer loop
      vertex -61.2061 61.75 7.1596
      vertex -43.8015 61.75 -7.55927
      vertex -42.4123 61.75 -7.68081
    endloop
  endfacet
  facet normal 0 1 0
    outer loop
      vertex -61.2061 58.25 7.1596
      vertex -41.0231 58.25 -7.55927
      vertex -42.4123 58.25 -7.68081
    endloop
  endfacet
  facet normal 0 -1 0
    outer loop
      vertex -61.2061 61.75 7.1596
      vertex -42.4123 61.75 -7.68081
      vertex -41.0231 61.75 -7.55927
    endloop
  endfacet
  facet normal 0 1 0
    outer loop
      vertex -61.2061 58.25 7.1596
      vertex -39.6761 58.25 -7.19835
      vertex -41.0231 58.25 -7.55927
    endloop
  endfacet
  facet normal 0 -1 0
    outer loop
      vertex -61.2061 61.75 7.1596
      vertex -41.0231 61.75 -7.55927
      vertex -39.6761 61.75 -7.19835
    endloop
  endfacet
  facet normal 0 1 0
    outer loop
      vertex -61.2061 58.25 7.1596
      vertex -38.4123 58.25 -6.60901
      vertex -39.6761 58.25 -7.19835
    endloop
  endfacet
  facet normal 0 -1 0
    outer loop
      vertex -61.2061 61.75 7.1596
      vertex -39.6761 61.75 -7.19835
      vertex -38.4123 61.75 -6.60901
    endloop
  endfacet
  facet normal 0 1 0
    outer loop
      vertex -61.2061 58.25 7.1596
      vertex -37.27 58.25 -5.80916
      vertex -38.4123 58.25 -6.60901
    endloop
  endfacet
  facet normal 0 -1 0
    outer loop
      vertex -61.2061 61.75 7.1596
      vertex -38.4123 61.75 -6.60901
      vertex -37.27 61.75 -5.80916
    endloop
  endfacet
  facet normal 0 1 0
    outer loop
      vertex -61.2061 58.25 7.1596
      vertex -36.2839 58.25 -4.82311
      vertex -37.27 58.25 -5.80916
    endloop
  endfacet
  facet normal 0 -1 0
    outer loop
      vertex -61.2061 61.75 7.1596
      vertex -37.27 61.75 -5.80916
      vertex -36.2839 61.75 -4.82311
    endloop
  endfacet
  facet normal 0 1 0
    outer loop
      vertex -61.2061 58.25 7.1596
      vertex -35.4841 58.25 -3.68081
      vertex -36.2839 58.25 -4.82311
    endloop
  endfacet
  facet normal 0 -1 0
    outer loop
      vertex -61.2061 61.75 7.1596
      vertex -36.2839 61.75 -4.82311
      vertex -35.4841 61.75 -3.68081
    endloop
  endfacet
  facet normal 0 1 0
    outer loop
      vertex -61.2061 58.25 7.1596
      vertex -34.8948 58.25 -2.41697
      vertex -35.4841 58.25 -3.68081
    endloop
  endfacet
  facet normal 0 -1 0
    outer loop
      vertex -61.2061 61.75 7.1596
      vertex -35.4841 61.75 -3.68081
      vertex -34.8948 61.75 -2.41697
    endloop
  endfacet
  facet normal 0 1 0
    outer loop
      vertex -61.2061 58.25 7.1596
      vertex -34.5338 58.25 -1.06999
      vertex -34.8948 58.25 -2.41697
    endloop
  endfacet
  facet normal 0 -1 0
    outer loop
      vertex -61.2061 61.75 7.1596
      vertex -34.8948 61.75 -2.41697
      vertex -34.5338 61.75 -1.06999
    endloop
  endfacet
  facet normal 0 1 0
    outer loop
      vertex -61.2061 58.25 7.1596
      vertex -34.4123 58.25 0.319194
      vertex -34.5338 58.25 -1.06999
    endloop
  endfacet
  facet normal 0 -1 0
    outer loop
      vertex -61.2061 61.75 7.1596
      vertex -34.5338 61.75 -1.06999
      vertex -34.4123 61.75 0.319194
    endloop
  endfacet
  facet normal 0 1 0
    outer loop
      vertex -61.2061 58.25 7.1596
      vertex -34.5338 58.25 1.70838
      vertex -34.4123 58.25 0.319194
    endloop
  endfacet
  facet normal 0 -1 0
    outer loop
      vertex -61.2061 61.75 7.1596
      vertex -34.4123 61.75 0.319194
      vertex -34.5338 61.75 1.70838
    endloop
  endfacet
  facet normal 0 1 0
    outer loop
      vertex -61.2061 58.25 7.1596
      vertex -34.8948 58.25 3.05536
      vertex -34.5338 58.25 1.70838
    endloop
  endfacet
  facet normal 0 -1 0
    outer loop
      vertex -61.2061 61.75 7.1596
      vertex -34.5338 61.75 1.70838
      vertex -34.8948 61.75 3.05536
    endloop
  endfacet
  facet normal 0 1 0
    outer loop
      vertex -61.2061 58.25 7.1596
      vertex -35.4841 58.25 4.31919
      vertex -34.8948 58.25 3.05536
    endloop
  endfacet
  facet normal 0 -1 0
    outer loop
      vertex -61.2061 61.75 7.1596
      vertex -34.8948 61.75 3.05536
      vertex -35.4841 61.75 4.31919
    endloop
  endfacet
  facet normal 0 1 0
    outer loop
      vertex -61.2061 58.25 7.1596
      vertex -36.2839 58.25 5.4615
      vertex -35.4841 58.25 4.31919
    endloop
  endfacet
  facet normal 0 -1 0
    outer loop
      vertex -61.2061 61.75 7.1596
      vertex -35.4841 61.75 4.31919
      vertex -36.2839 61.75 5.4615
    endloop
  endfacet
  facet normal 0 1 0
    outer loop
      vertex -61.2061 58.25 7.1596
      vertex -37.27 58.25 6.44755
      vertex -36.2839 58.25 5.4615
    endloop
  endfacet
  facet normal 0 -1 0
    outer loop
      vertex -61.2061 61.75 7.1596
      vertex -36.2839 61.75 5.4615
      vertex -37.27 61.75 6.44755
    endloop
  endfacet
  facet normal -0 1 0
    outer loop
      vertex -61.2061 58.25 7.1596
      vertex -38.4123 58.25 7.2474
      vertex -37.27 58.25 6.44755
    endloop
  endfacet
  facet normal 0 -1 0
    outer loop
      vertex -61.2061 61.75 7.1596
      vertex -37.27 61.75 6.44755
      vertex -38.4123 61.75 7.2474
    endloop
  endfacet
  facet normal 0 1 0
    outer loop
      vertex -61.2061 58.25 7.1596
      vertex -39.6761 58.25 7.83674
      vertex -38.4123 58.25 7.2474
    endloop
  endfacet
  facet normal 0 -1 0
    outer loop
      vertex -61.2061 61.75 7.1596
      vertex -38.4123 61.75 7.2474
      vertex -39.6761 61.75 7.83674
    endloop
  endfacet
  facet normal 0 1 -0
    outer loop
      vertex -61.2061 58.25 7.1596
      vertex -77.2638 58.25 21.5175
      vertex -39.6761 58.25 7.83674
    endloop
  endfacet
  facet normal 0 -1 0
    outer loop
      vertex -61.2061 61.75 7.1596
      vertex -39.6761 61.75 7.83674
      vertex -77.2638 61.75 21.5175
    endloop
  endfacet
endsolid L1_crank_H1_A_R
