solid L2_coupler_A_B_R
  facet normal 0.23963 0 -0.970864
    outer loop
      vertex -43.6451 44.5692 21.9044
      vertex -44.999 44.5692 21.5703
      vertex -44.999 48.0692 21.5703
    endloop
  endfacet
  facet normal 0.23963 0 -0.970864
    outer loop
      vertex -43.6451 44.5692 21.9044
      vertex -44.999 48.0692 21.5703
      vertex -43.6451 48.0692 21.9044
    endloop
  endfacet
  facet normal 0.404579 0 -0.914503
    outer loop
      vertex -44.999 44.5692 21.5703
      vertex -46.2742 44.5692 21.0061
      vertex -46.2742 48.0692 21.0061
    endloop
  endfacet
  facet normal 0.404579 0 -0.914503
    outer loop
      vertex -44.999 44.5692 21.5703
      vertex -46.2742 48.0692 21.0061
      vertex -44.999 48.0692 21.5703
    endloop
  endfacet
  facet normal 0.557234 0 -0.830356
    outer loop
      vertex -46.2742 44.5692 21.0061
      vertex -47.4322 44.5692 20.229
      vertex -47.4322 48.0692 20.229
    endloop
  endfacet
  facet normal 0.557234 0 -0.830356
    outer loop
      vertex -46.2742 44.5692 21.0061
      vertex -47.4322 48.0692 20.229
      vertex -46.2742 48.0692 21.0061
    endloop
  endfacet
  facet normal 0.692958 0 -0.720978
    outer loop
      vertex -47.4322 44.5692 20.229
      vertex -48.4376 44.5692 19.2627
      vertex -48.4376 48.0692 19.2627
    endloop
  endfacet
  facet normal 0.692958 0 -0.720978
    outer loop
      vertex -47.4322 44.5692 20.229
      vertex -48.4376 48.0692 19.2627
      vertex -47.4322 48.0692 20.229
    endloop
  endfacet
  facet normal 0.807627 0 -0.589694
    outer loop
      vertex -48.4376 44.5692 19.2627
      vertex -49.2599 44.5692 18.1365
      vertex -49.2599 48.0692 18.1365
    endloop
  endfacet
  facet normal 0.807627 0 -0.589694
    outer loop
      vertex -48.4376 44.5692 19.2627
      vertex -49.2599 48.0692 18.1365
      vertex -48.4376 48.0692 19.2627
    endloop
  endfacet
  facet normal 0.897757 0 -0.440492
    outer loop
      vertex -49.2599 44.5692 18.1365
      vertex -49.8741 44.5692 16.8846
      vertex -49.8741 48.0692 16.8846
    endloop
  endfacet
  facet normal 0.897757 0 -0.440492
    outer loop
      vertex -49.2599 44.5692 18.1365
      vertex -49.8741 48.0692 16.8846
      vertex -49.2599 48.0692 18.1365
    endloop
  endfacet
  facet normal 0.960608 0 -0.277906
    outer loop
      vertex -49.8741 44.5692 16.8846
      vertex -50.2617 44.5692 15.545
      vertex -50.2617 48.0692 15.545
    endloop
  endfacet
  facet normal 0.960608 0 -0.277906
    outer loop
      vertex -49.8741 44.5692 16.8846
      vertex -50.2617 48.0692 15.545
      vertex -49.8741 48.0692 16.8846
    endloop
  endfacet
  facet normal 0.994272 0 -0.106876
    outer loop
      vertex -50.2617 44.5692 15.545
      vertex -50.4107 44.5692 14.1585
      vertex -50.4107 48.0692 14.1585
    endloop
  endfacet
  facet normal 0.994272 0 -0.106876
    outer loop
      vertex -50.2617 44.5692 15.545
      vertex -50.4107 48.0692 14.1585
      vertex -50.2617 48.0692 15.545
    endloop
  endfacet
  facet normal 0.997726 0 0.067401
    outer loop
      vertex -50.4107 44.5692 14.1585
      vertex -50.3167 44.5692 12.7672
      vertex -50.3167 48.0692 12.7672
    endloop
  endfacet
  facet normal 0.997726 -0 0.067401
    outer loop
      vertex -50.4107 44.5692 14.1585
      vertex -50.3167 48.0692 12.7672
      vertex -50.4107 48.0692 14.1585
    endloop
  endfacet
  facet normal 0.970864 0 0.23963
    outer loop
      vertex -50.3167 44.5692 12.7672
      vertex -49.9826 44.5692 11.4133
      vertex -49.9826 48.0692 11.4133
    endloop
  endfacet
  facet normal 0.970864 -0 0.23963
    outer loop
      vertex -50.3167 44.5692 12.7672
      vertex -49.9826 48.0692 11.4133
      vertex -50.3167 48.0692 12.7672
    endloop
  endfacet
  facet normal 0.914503 0 0.404579
    outer loop
      vertex -49.9826 44.5692 11.4133
      vertex -49.4184 44.5692 10.1381
      vertex -49.4184 48.0692 10.1381
    endloop
  endfacet
  facet normal 0.914503 -0 0.404579
    outer loop
      vertex -49.9826 44.5692 11.4133
      vertex -49.4184 48.0692 10.1381
      vertex -49.9826 48.0692 11.4133
    endloop
  endfacet
  facet normal 0.830356 0 0.557234
    outer loop
      vertex -49.4184 44.5692 10.1381
      vertex -48.6413 44.5692 8.98013
      vertex -48.6413 48.0692 8.98013
    endloop
  endfacet
  facet normal 0.830356 -0 0.557234
    outer loop
      vertex -49.4184 44.5692 10.1381
      vertex -48.6413 48.0692 8.98013
      vertex -49.4184 48.0692 10.1381
    endloop
  endfacet
  facet normal 0.720978 0 0.692958
    outer loop
      vertex -48.6413 44.5692 8.98013
      vertex -47.675 44.5692 7.97473
      vertex -47.675 48.0692 7.97473
    endloop
  endfacet
  facet normal 0.720978 -0 0.692958
    outer loop
      vertex -48.6413 44.5692 8.98013
      vertex -47.675 48.0692 7.97473
      vertex -48.6413 48.0692 8.98013
    endloop
  endfacet
  facet normal 0.589694 0 0.807627
    outer loop
      vertex -47.675 44.5692 7.97473
      vertex -46.5488 44.5692 7.15241
      vertex -46.5488 48.0692 7.15241
    endloop
  endfacet
  facet normal 0.589694 -0 0.807627
    outer loop
      vertex -47.675 44.5692 7.97473
      vertex -46.5488 48.0692 7.15241
      vertex -47.675 48.0692 7.97473
    endloop
  endfacet
  facet normal 0.440492 0 0.897757
    outer loop
      vertex -46.5488 44.5692 7.15241
      vertex -45.2969 44.5692 6.53815
      vertex -45.2969 48.0692 6.53815
    endloop
  endfacet
  facet normal 0.440492 -0 0.897757
    outer loop
      vertex -46.5488 44.5692 7.15241
      vertex -45.2969 48.0692 6.53815
      vertex -46.5488 48.0692 7.15241
    endloop
  endfacet
  facet normal 0.277906 0 0.960608
    outer loop
      vertex -45.2969 44.5692 6.53815
      vertex -43.9573 44.5692 6.15061
      vertex -43.9573 48.0692 6.15061
    endloop
  endfacet
  facet normal 0.277906 -0 0.960608
    outer loop
      vertex -45.2969 44.5692 6.53815
      vertex -43.9573 48.0692 6.15061
      vertex -45.2969 48.0692 6.53815
    endloop
  endfacet
  facet normal 0.106876 0 0.994272
    outer loop
      vertex -43.9573 44.5692 6.15061
      vertex -42.5708 44.5692 6.00157
      vertex -42.5708 48.0692 6.00157
    endloop
  endfacet
  facet normal 0.106876 -0 0.994272
    outer loop
      vertex -43.9573 44.5692 6.15061
      vertex -42.5708 48.0692 6.00157
      vertex -43.9573 48.0692 6.15061
    endloop
  endfacet
  facet normal -0.067401 0 0.997726
    outer loop
      vertex -42.5708 44.5692 6.00157
      vertex -41.1795 44.5692 6.09556
      vertex -41.1795 48.0692 6.09556
    endloop
  endfacet
  facet normal -0.067401 0 0.997726
    outer loop
      vertex -42.5708 44.5692 6.00157
      vertex -41.1795 48.0692 6.09556
      vertex -42.5708 48.0692 6.00157
    endloop
  endfacet
  facet normal -0.154102 0 0.988055
    outer loop
      vertex -41.1795 44.5692 6.09556
      vertex 77.3871 44.5692 24.5878
      vertex 77.3871 48.0692 24.5878
    endloop
  endfacet
  facet normal -0.154102 0 0.988055
    outer loop
      vertex -41.1795 44.5692 6.09556
      vertex 77.3871 48.0692 24.5878
      vertex -41.1795 48.0692 6.09556
    endloop
  endfacet
  facet normal -0.23963 0 0.970864
    outer loop
      vertex 77.3871 44.5692 24.5878
      vertex 78.741 44.5692 24.922
      vertex 78.741 48.0692 24.922
    endloop
  endfacet
  facet normal -0.23963 0 0.970864
    outer loop
      vertex 77.3871 44.5692 24.5878
      vertex 78.741 48.0692 24.922
      vertex 77.3871 48.0692 24.5878
    endloop
  endfacet
  facet normal -0.404579 0 0.914503
    outer loop
      vertex 78.741 44.5692 24.922
      vertex 80.0162 44.5692 25.4862
      vertex 80.0162 48.0692 25.4862
    endloop
  endfacet
  facet normal -0.404579 0 0.914503
    outer loop
      vertex 78.741 44.5692 24.922
      vertex 80.0162 48.0692 25.4862
      vertex 78.741 48.0692 24.922
    endloop
  endfacet
  facet normal -0.557234 0 0.830356
    outer loop
      vertex 80.0162 44.5692 25.4862
      vertex 81.1742 44.5692 26.2632
      vertex 81.1742 48.0692 26.2632
    endloop
  endfacet
  facet normal -0.557234 0 0.830356
    outer loop
      vertex 80.0162 44.5692 25.4862
      vertex 81.1742 48.0692 26.2632
      vertex 80.0162 48.0692 25.4862
    endloop
  endfacet
  facet normal -0.692958 0 0.720978
    outer loop
      vertex 81.1742 44.5692 26.2632
      vertex 82.1796 44.5692 27.2295
      vertex 82.1796 48.0692 27.2295
    endloop
  endfacet
  facet normal -0.692958 0 0.720978
    outer loop
      vertex 81.1742 44.5692 26.2632
      vertex 82.1796 48.0692 27.2295
      vertex 81.1742 48.0692 26.2632
    endloop
  endfacet
  facet normal -0.807627 0 0.589694
    outer loop
      vertex 82.1796 44.5692 27.2295
      vertex 83.0019 44.5692 28.3558
      vertex 83.0019 48.0692 28.3558
    endloop
  endfacet
  facet normal -0.807627 0 0.589694
    outer loop
      vertex 82.1796 44.5692 27.2295
      vertex 83.0019 48.0692 28.3558
      vertex 82.1796 48.0692 27.2295
    endloop
  endfacet
  facet normal -0.897757 0 0.440492
    outer loop
      vertex 83.0019 44.5692 28.3558
      vertex 83.6162 44.5692 29.6077
      vertex 83.6162 48.0692 29.6077
    endloop
  endfacet
  facet normal -0.897757 0 0.440492
    outer loop
      vertex 83.0019 44.5692 28.3558
      vertex 83.6162 48.0692 29.6077
      vertex 83.0019 48.0692 28.3558
    endloop
  endfacet
  facet normal -0.960608 0 0.277906
    outer loop
      vertex 83.6162 44.5692 29.6077
      vertex 84.0037 44.5692 30.9472
      vertex 84.0037 48.0692 30.9472
    endloop
  endfacet
  facet normal -0.960608 0 0.277906
    outer loop
      vertex 83.6162 44.5692 29.6077
      vertex 84.0037 48.0692 30.9472
      vertex 83.6162 48.0692 29.6077
    endloop
  endfacet
  facet normal -0.994272 0 0.106876
    outer loop
      vertex 84.0037 44.5692 30.9472
      vertex 84.1527 44.5692 32.3337
      vertex 84.1527 48.0692 32.3337
    endloop
  endfacet
  facet normal -0.994272 0 0.106876
    outer loop
      vertex 84.0037 44.5692 30.9472
      vertex 84.1527 48.0692 32.3337
      vertex 84.0037 48.0692 30.9472
    endloop
  endfacet
  facet normal -0.997726 0 -0.067401
    outer loop
      vertex 84.1527 44.5692 32.3337
      vertex 84.0587 44.5692 33.7251
      vertex 84.0587 48.0692 33.7251
    endloop
  endfacet
  facet normal -0.997726 0 -0.067401
    outer loop
      vertex 84.1527 44.5692 32.3337
      vertex 84.0587 48.0692 33.7251
      vertex 84.1527 48.0692 32.3337
    endloop
  endfacet
  facet normal -0.970864 0 -0.23963
    outer loop
      vertex 84.0587 44.5692 33.7251
      vertex 83.7246 44.5692 35.0789
      vertex 83.7246 48.0692 35.0789
    endloop
  endfacet
  facet normal -0.970864 0 -0.23963
    outer loop
      vertex 84.0587 44.5692 33.7251
      vertex 83.7246 48.0692 35.0789
      vertex 84.0587 48.0692 33.7251
    endloop
  endfacet
  facet normal -0.914503 0 -0.404579
    outer loop
      vertex 83.7246 44.5692 35.0789
      vertex 83.1604 44.5692 36.3542
      vertex 83.1604 48.0692 36.3542
    endloop
  endfacet
  facet normal -0.914503 0 -0.404579
    outer loop
      vertex 83.7246 44.5692 35.0789
      vertex 83.1604 48.0692 36.3542
      vertex 83.7246 48.0692 35.0789
    endloop
  endfacet
  facet normal -0.830356 0 -0.557234
    outer loop
      vertex 83.1604 44.5692 36.3542
      vertex 82.3833 44.5692 37.5121
      vertex 82.3833 48.0692 37.5121
    endloop
  endfacet
  facet normal -0.830356 0 -0.557234
    outer loop
      vertex 83.1604 44.5692 36.3542
      vertex 82.3833 48.0692 37.5121
      vertex 83.1604 48.0692 36.3542
    endloop
  endfacet
  facet normal -0.720978 0 -0.692958
    outer loop
      vertex 82.3833 44.5692 37.5121
      vertex 81.417 44.5692 38.5175
      vertex 81.417 48.0692 38.5175
    endloop
  endfacet
  facet normal -0.720978 0 -0.692958
    outer loop
      vertex 82.3833 44.5692 37.5121
      vertex 81.417 48.0692 38.5175
      vertex 82.3833 48.0692 37.5121
    endloop
  endfacet
  facet normal -0.589694 0 -0.807627
    outer loop
      vertex 81.417 44.5692 38.5175
      vertex 80.2908 44.5692 39.3398
      vertex 80.2908 48.0692 39.3398
    endloop
  endfacet
  facet normal -0.589694 0 -0.807627
    outer loop
      vertex 81.417 44.5692 38.5175
      vertex 80.2908 48.0692 39.3398
      vertex 81.417 48.0692 38.5175
    endloop
  endfacet
  facet normal -0.440492 0 -0.897757
    outer loop
      vertex 80.2908 44.5692 39.3398
      vertex 79.0389 44.5692 39.9541
      vertex 79.0389 48.0692 39.9541
    endloop
  endfacet
  facet normal -0.440492 0 -0.897757
    outer loop
      vertex 80.2908 44.5692 39.3398
      vertex 79.0389 48.0692 39.9541
      vertex 80.2908 48.0692 39.3398
    endloop
  endfacet
  facet normal -0.277906 0 -0.960608
    outer loop
      vertex 79.0389 44.5692 39.9541
      vertex 77.6993 44.5692 40.3416
      vertex 77.6993 48.0692 40.3416
    endloop
  endfacet
  facet normal -0.277906 0 -0.960608
    outer loop
      vertex 79.0389 44.5692 39.9541
      vertex 77.6993 48.0692 40.3416
      vertex 79.0389 48.0692 39.9541
    endloop
  endfacet
  facet normal -0.106876 0 -0.994272
    outer loop
      vertex 77.6993 44.5692 40.3416
      vertex 76.3128 44.5692 40.4907
      vertex 76.3128 48.0692 40.4907
    endloop
  endfacet
  facet normal -0.106876 0 -0.994272
    outer loop
      vertex 77.6993 44.5692 40.3416
      vertex 76.3128 48.0692 40.4907
      vertex 77.6993 48.0692 40.3416
    endloop
  endfacet
  facet normal 0.067401 0 -0.997726
    outer loop
      vertex 76.3128 44.5692 40.4907
      vertex 74.9215 44.5692 40.3967
      vertex 74.9215 48.0692 40.3967
    endloop
  endfacet
  facet normal 0.067401 0 -0.997726
    outer loop
      vertex 76.3128 44.5692 40.4907
      vertex 74.9215 48.0692 40.3967
      vertex 76.3128 48.0692 40.4907
    endloop
  endfacet
  facet normal 0.154102 0 -0.988055
    outer loop
      vertex 74.9215 44.5692 40.3967
      vertex -43.6451 44.5692 21.9044
      vertex -43.6451 48.0692 21.9044
    endloop
  endfacet
  facet normal 0.154102 0 -0.988055
    outer loop
      vertex 74.9215 44.5692 40.3967
      vertex -43.6451 48.0692 21.9044
      vertex 74.9215 48.0692 40.3967
    endloop
  endfacet
  facet normal 0 1 0
    outer loop
      vertex 16.871 44.5692 23.2461
      vertex -44.999 44.5692 21.5703
      vertex -43.6451 44.5692 21.9044
    endloop
  endfacet
  facet normal 0 -1 0
    outer loop
      vertex 16.871 48.0692 23.2461
      vertex -43.6451 48.0692 21.9044
      vertex -44.999 48.0692 21.5703
    endloop
  endfacet
  facet normal 0 1 0
    outer loop
      vertex 16.871 44.5692 23.2461
      vertex -46.2742 44.5692 21.0061
      vertex -44.999 44.5692 21.5703
    endloop
  endfacet
  facet normal 0 -1 0
    outer loop
      vertex 16.871 48.0692 23.2461
      vertex -44.999 48.0692 21.5703
      vertex -46.2742 48.0692 21.0061
    endloop
  endfacet
  facet normal 0 1 0
    outer loop
      vertex 16.871 44.5692 23.2461
      vertex -47.4322 44.5692 20.229
      vertex -46.2742 44.5692 21.0061
    endloop
  endfacet
  facet normal 0 -1 0
    outer loop
      vertex 16.871 48.0692 23.2461
      vertex -46.2742 48.0692 21.0061
      vertex -47.4322 48.0692 20.229
    endloop
  endfacet
  facet normal 0 1 0
    outer loop
      vertex 16.871 44.5692 23.2461
      vertex -48.4376 44.5692 19.2627
      vertex -47.4322 44.5692 20.229
    endloop
  endfacet
  facet normal 0 -1 0
    outer loop
      vertex 16.871 48.0692 23.2461
      vertex -47.4322 48.0692 20.229
      vertex -48.4376 48.0692 19.2627
    endloop
  endfacet
  facet normal 0 1 0
    outer loop
      vertex 16.871 44.5692 23.2461
      vertex -49.2599 44.5692 18.1365
      vertex -48.4376 44.5692 19.2627
    endloop
  endfacet
  facet normal 0 -1 0
    outer loop
      vertex 16.871 48.0692 23.2461
      vertex -48.4376 48.0692 19.2627
      vertex -49.2599 48.0692 18.1365
    endloop
  endfacet
  facet normal 0 1 0
    outer loop
      vertex 16.871 44.5692 23.2461
      vertex -49.8741 44.5692 16.8846
      vertex -49.2599 44.5692 18.1365
    endloop
  endfacet
  facet normal 0 -1 0
    outer loop
      vertex 16.871 48.0692 23.2461
      vertex -49.2599 48.0692 18.1365
      vertex -49.8741 48.0692 16.8846
    endloop
  endfacet
  facet normal 0 1 0
    outer loop
      vertex 16.871 44.5692 23.2461
      vertex -50.2617 44.5692 15.545
      vertex -49.8741 44.5692 16.8846
    endloop
  endfacet
  facet normal 0 -1 0
    outer loop
      vertex 16.871 48.0692 23.2461
      vertex -49.8741 48.0692 16.8846
      vertex -50.2617 48.0692 15.545
    endloop
  endfacet
  facet normal 0 1 0
    outer loop
      vertex 16.871 44.5692 23.2461
      vertex -50.4107 44.5692 14.1585
      vertex -50.2617 44.5692 15.545
    endloop
  endfacet
  facet normal 0 -1 0
    outer loop
      vertex 16.871 48.0692 23.2461
      vertex -50.2617 48.0692 15.545
      vertex -50.4107 48.0692 14.1585
    endloop
  endfacet
  facet normal 0 1 0
    outer loop
      vertex 16.871 44.5692 23.2461
      vertex -50.3167 44.5692 12.7672
      vertex -50.4107 44.5692 14.1585
    endloop
  endfacet
  facet normal 0 -1 0
    outer loop
      vertex 16.871 48.0692 23.2461
      vertex -50.4107 48.0692 14.1585
      vertex -50.3167 48.0692 12.7672
    endloop
  endfacet
  facet normal 0 1 0
    outer loop
      vertex 16.871 44.5692 23.2461
      vertex -49.9826 44.5692 11.4133
      vertex -50.3167 44.5692 12.7672
    endloop
  endfacet
  facet normal 0 -1 0
    outer loop
      vertex 16.871 48.0692 23.2461
      vertex -50.3167 48.0692 12.7672
      vertex -49.9826 48.0692 11.4133
    endloop
  endfacet
  facet normal 0 1 0
    outer loop
      vertex 16.871 44.5692 23.2461
      vertex -49.4184 44.5692 10.1381
      vertex -49.9826 44.5692 11.4133
    endloop
  endfacet
  facet normal 0 -1 0
    outer loop
      vertex 16.871 48.0692 23.2461
      vertex -49.9826 48.0692 11.4133
      vertex -49.4184 48.0692 10.1381
    endloop
  endfacet
  facet normal 0 1 0
    outer loop
      vertex 16.871 44.5692 23.2461
      vertex -48.6413 44.5692 8.98013
      vertex -49.4184 44.5692 10.1381
    endloop
  endfacet
  facet normal 0 -1 0
    outer loop
      vertex 16.871 48.0692 23.2461
      vertex -49.4184 48.0692 10.1381
      vertex -48.6413 48.0692 8.98013
    endloop
  endfacet
  facet normal 0 1 0
    outer loop
      vertex 16.871 44.5692 23.2461
      vertex -47.675 44.5692 7.97473
      vertex -48.6413 44.5692 8.98013
    endloop
  endfacet
  facet normal 0 -1 0
    outer loop
      vertex 16.871 48.0692 23.2461
      vertex -48.6413 48.0692 8.98013
      vertex -47.675 48.0692 7.97473
    endloop
  endfacet
  facet normal 0 1 0
    outer loop
      vertex 16.871 44.5692 23.2461
      vertex -46.5488 44.5692 7.15241
      vertex -47.675 44.5692 7.97473
    endloop
  endfacet
  facet normal 0 -1 0
    outer loop
      vertex 16.871 48.0692 23.2461
      vertex -47.675 48.0692 7.97473
      vertex -46.5488 48.0692 7.15241
    endloop
  endfacet
  facet normal 0 1 0
    outer loop
      vertex 16.871 44.5692 23.2461
      vertex -45.2969 44.5692 6.53815
      vertex -46.5488 44.5692 7.15241
    endloop
  endfacet
  facet normal 0 -1 0
    outer loop
      vertex 16.871 48.0692 23.2461
      vertex -46.5488 48.0692 7.15241
      vertex -45.2969 48.0692 6.53815
    endloop
  endfacet
  facet normal 0 1 0
    outer loop
      vertex 16.871 44.5692 23.2461
      vertex -43.9573 44.5692 6.15061
      vertex -45.2969 44.5692 6.53815
    endloop
  endfacet
  facet normal 0 -1 0
    outer loop
      vertex 16.871 48.0692 23.2461
      vertex -45.2969 48.0692 6.53815
      vertex -43.9573 48.0692 6.15061
    endloop
  endfacet
  facet normal 0 1 0
    outer loop
      vertex 16.871 44.5692 23.2461
      vertex -42.5708 44.5692 6.00157
      vertex -43.9573 44.5692 6.15061
    endloop
  endfacet
  facet normal 0 -1 0
    outer loop
      vertex 16.871 48.0692 23.2461
      vertex -43.9573 48.0692 6.15061
      vertex -42.5708 48.0692 6.00157
    endloop
  endfacet
  facet normal 0 1 0
    outer loop
      vertex 16.871 44.5692 23.2461
      vertex -41.1795 44.5692 6.09556
      vertex -42.5708 44.5692 6.00157
    endloop
  endfacet
  facet normal 0 -1 0
    outer loop
      vertex 16.871 48.0692 23.2461
      vertex -42.5708 48.0692 6.00157
      vertex -41.1795 48.0692 6.09556
    endloop
  endfacet
  facet normal -0 1 0
    outer loop
      vertex 16.871 44.5692 23.2461
      vertex 77.3871 44.5692 24.5878
      vertex -41.1795 44.5692 6.09556
    endloop
  endfacet
  facet normal 0 -1 -0
    outer loop
      vertex 16.871 48.0692 23.2461
      vertex -41.1795 48.0692 6.09556
      vertex 77.3871 48.0692 24.5878
    endloop
  endfacet
  facet normal 0 1 0
    outer loop
      vertex 16.871 44.5692 23.2461
      vertex 78.741 44.5692 24.922
      vertex 77.3871 44.5692 24.5878
    endloop
  endfacet
  facet normal 0 -1 0
    outer loop
      vertex 16.871 48.0692 23.2461
      vertex 77.3871 48.0692 24.5878
      vertex 78.741 48.0692 24.922
    endloop
  endfacet
  facet normal 0 1 0
    outer loop
      vertex 16.871 44.5692 23.2461
      vertex 80.0162 44.5692 25.4862
      vertex 78.741 44.5692 24.922
    endloop
  endfacet
  facet normal 0 -1 0
    outer loop
      vertex 16.871 48.0692 23.2461
      vertex 78.741 48.0692 24.922
      vertex 80.0162 48.0692 25.4862
    endloop
  endfacet
  facet normal 0 1 0
    outer loop
      vertex 16.871 44.5692 23.2461
      vertex 81.1742 44.5692 26.2632
      vertex 80.0162 44.5692 25.4862
    endloop
  endfacet
  facet normal 0 -1 0
    outer loop
      vertex 16.871 48.0692 23.2461
      vertex 80.0162 48.0692 25.4862
      vertex 81.1742 48.0692 26.2632
    endloop
  endfacet
  facet normal 0 1 0
    outer loop
      vertex 16.871 44.5692 23.2461
      vertex 82.1796 44.5692 27.2295
      vertex 81.1742 44.5692 26.2632
    endloop
  endfacet
  facet normal 0 -1 0
    outer loop
      vertex 16.871 48.0692 23.2461
      vertex 81.1742 48.0692 26.2632
      vertex 82.1796 48.0692 27.2295
    endloop
  endfacet
  facet normal 0 1 0
    outer loop
      vertex 16.871 44.5692 23.2461
      vertex 83.0019 44.5692 28.3558
      vertex 82.1796 44.5692 27.2295
    endloop
  endfacet
  facet normal 0 -1 0
    outer loop
      vertex 16.871 48.0692 23.2461
      vertex 82.1796 48.0692 27.2295
      vertex 83.0019 48.0692 28.3558
    endloop
  endfacet
  facet normal 0 1 0
    outer loop
      vertex 16.871 44.5692 23.2461
      vertex 83.6162 44.5692 29.6077
      vertex 83.0019 44.5692 28.3558
    endloop
  endfacet
  facet normal 0 -1 0
    outer loop
      vertex 16.871 48.0692 23.2461
      vertex 83.0019 48.0692 28.3558
      vertex 83.6162 48.0692 29.6077
    endloop
  endfacet
  facet normal 0 1 0
    outer loop
      vertex 16.871 44.5692 23.2461
      vertex 84.0037 44.5692 30.9472
      vertex 83.6162 44.5692 29.6077
    endloop
  endfacet
  facet normal 0 -1 0
    outer loop
      vertex 16.871 48.0692 23.2461
      vertex 83.6162 48.0692 29.6077
      vertex 84.0037 48.0692 30.9472
    endloop
  endfacet
  facet normal 0 1 0
    outer loop
      vertex 16.871 44.5692 23.2461
      vertex 84.1527 44.5692 32.3337
      vertex 84.0037 44.5692 30.9472
    endloop
  endfacet
  facet normal 0 -1 0
    outer loop
      vertex 16.871 48.0692 23.2461
      vertex 84.0037 48.0692 30.9472
      vertex 84.1527 48.0692 32.3337
    endloop
  endfacet
  facet normal 0 1 0
    outer loop
      vertex 16.871 44.5692 23.2461
      vertex 84.0587 44.5692 33.7251
      vertex 84.1527 44.5692 32.3337
    endloop
  endfacet
  facet normal 0 -1 0
    outer loop
      vertex 16.871 48.0692 23.2461
      vertex 84.1527 48.0692 32.3337
      vertex 84.0587 48.0692 33.7251
    endloop
  endfacet
  facet normal 0 1 0
    outer loop
      vertex 16.871 44.5692 23.2461
      vertex 83.7246 44.5692 35.0789
      vertex 84.0587 44.5692 33.7251
    endloop
  endfacet
  facet normal 0 -1 0
    outer loop
      vertex 16.871 48.0692 23.2461
      vertex 84.0587 48.0692 33.7251
      vertex 83.7246 48.0692 35.0789
    endloop
  endfacet
  facet normal 0 1 0
    outer loop
      vertex 16.871 44.5692 23.2461
      vertex 83.1604 44.5692 36.3542
      vertex 83.7246 44.5692 35.0789
    endloop
  endfacet
  facet normal 0 -1 0
    outer loop
      vertex 16.871 48.0692 23.2461
      vertex 83.7246 48.0692 35.0789
      vertex 83.1604 48.0692 36.3542
    endloop
  endfacet
  facet normal 0 1 0
    outer loop
      vertex 16.871 44.5692 23.2461
      vertex 82.3833 44.5692 37.5121
      vertex 83.1604 44.5692 36.3542
    endloop
  endfacet
  facet normal 0 -1 0
    outer loop
      vertex 16.871 48.0692 23.2461
      vertex 83.1604 48.0692 36.3542
      vertex 82.3833 48.0692 37.5121
    endloop
  endfacet
  facet normal 0 1 0
    outer loop
      vertex 16.871 44.5692 23.2461
      vertex 81.417 44.5692 38.5175
      vertex 82.3833 44.5692 37.5121
    endloop
  endfacet
  facet normal 0 -1 0
    outer loop
      vertex 16.871 48.0692 23.2461
      vertex 82.3833 48.0692 37.5121
      vertex 81.417 48.0692 38.5175
    endloop
  endfacet
  facet normal 0 1 0
    outer loop
      vertex 16.871 44.5692 23.2461
      vertex 80.2908 44.5692 39.3398
      vertex 81.417 44.5692 38.5175
    endloop
  endfacet
  facet normal 0 -1 0
    outer loop
      vertex 16.871 48.0692 23.2461
      vertex 81.417 48.0692 38.5175
      vertex 80.2908 48.0692 39.3398
    endloop
  endfacet
  facet normal 0 1 0
    outer loop
      vertex 16.871 44.5692 23.2461
      vertex 79.0389 44.5692 39.9541
      vertex 80.2908 44.5692 39.3398
    endloop
  endfacet
  facet normal 0 -1 0
    outer loop
      vertex 16.871 48.0692 23.2461
      vertex 80.2908 48.0692 39.3398
      vertex 79.0389 48.0692 39.9541
    endloop
  endfacet
  facet normal 0 1 0
    outer loop
      vertex 16.871 44.5692 23.2461
      vertex 77.6993 44.5692 40.3416
      vertex 79.0389 44.5692 39.9541
    endloop
  endfacet
  facet normal 0 -1 0
    outer loop
      vertex 16.871 48.0692 23.2461
      vertex 79.0389 48.0692 39.9541
      vertex 77.6993 48.0692 40.3416
    endloop
  endfacet
  facet normal 0 1 0
    outer loop
      vertex 16.871 44.5692 23.2461
      vertex 76.3128 44.5692 40.4907
      vertex 77.6993 44.5692 40.3416
    endloop
  endfacet
  facet normal 0 -1 0
    outer loop
      vertex 16.871 48.0692 23.2461
      vertex 77.6993 48.0692 40.3416
      vertex 76.3128 48.0692 40.4907
    endloop
  endfacet
  facet normal 0 1 0
    outer loop
      vertex 16.871 44.5692 23.2461
      vertex 74.9215 44.5692 40.3967
      vertex 76.3128 44.5692 40.4907
    endloop
  endfacet
  facet normal 0 -1 0
    outer loop
      vertex 16.871 48.0692 23.2461
      vertex 76.3128 48.0692 40.4907
      vertex 74.9215 48.0692 40.3967
    endloop
  endfacet
  facet normal 0 1 -0
    outer loop
      vertex 16.871 44.5692 23.2461
      vertex -43.6451 44.5692 21.9044
      vertex 74.9215 44.5692 40.3967
    endloop
  endfacet
  facet normal -0 -1 0
    outer loop
      vertex 16.871 48.0692 23.2461
      vertex 74.9215 48.0692 40.3967
      vertex -43.6451 48.0692 21.9044
    endloop
  endfacet
endsolid L2_coupler_A_B_R
