solid L5_rear_rocker_H2_F_R
  facet normal 0.391424 0 0.920211
    outer loop
      vertex 115.769 58.25 6.05665
      vertex 117.212 58.25 5.44259
      vertex 117.212 61.75 5.44259
    endloop
  endfacet
  facet normal 0.391424 -0 0.920211
    outer loop
      vertex 115.769 58.25 6.05665
      vertex 117.212 61.75 5.44259
      vertex 115.769 61.75 6.05665
    endloop
  endfacet
  facet normal 0.225684 0 0.974201
    outer loop
      vertex 117.212 58.25 5.44259
      vertex 118.741 58.25 5.08853
      vertex 118.741 61.75 5.08853
    endloop
  endfacet
  facet normal 0.225684 -0 0.974201
    outer loop
      vertex 117.212 58.25 5.44259
      vertex 118.741 61.75 5.08853
      vertex 117.212 61.75 5.44259
    endloop
  endfacet
  facet normal 0.0530875 0 0.99859
    outer loop
      vertex 118.741 58.25 5.08853
      vertex 120.307 58.25 5.00525
      vertex 120.307 61.75 5.00525
    endloop
  endfacet
  facet normal 0.0530875 -0 0.99859
    outer loop
      vertex 118.741 58.25 5.08853
      vertex 120.307 61.75 5.00525
      vertex 118.741 61.75 5.08853
    endloop
  endfacet
  facet normal -0.121122 0 0.992638
    outer loop
      vertex 120.307 58.25 5.00525
      vertex 121.865 58.25 5.19527
      vertex 121.865 61.75 5.19527
    endloop
  endfacet
  facet normal -0.121122 0 0.992638
    outer loop
      vertex 120.307 58.25 5.00525
      vertex 121.865 61.75 5.19527
      vertex 120.307 61.75 5.00525
    endloop
  endfacet
  facet normal -0.291652 0 0.956525
    outer loop
      vertex 121.865 58.25 5.19527
      vertex 123.365 58.25 5.65281
      vertex 123.365 61.75 5.65281
    endloop
  endfacet
  facet normal -0.291652 0 0.956525
    outer loop
      vertex 121.865 58.25 5.19527
      vertex 123.365 61.75 5.65281
      vertex 121.865 61.75 5.19527
    endloop
  endfacet
  facet normal -0.45332 0 0.891348
    outer loop
      vertex 123.365 58.25 5.65281
      vertex 124.764 58.25 6.36398
      vertex 124.764 61.75 6.36398
    endloop
  endfacet
  facet normal -0.45332 0 0.891348
    outer loop
      vertex 123.365 58.25 5.65281
      vertex 124.764 61.75 6.36398
      vertex 123.365 61.75 5.65281
    endloop
  endfacet
  facet normal -0.601214 0 0.799088
    outer loop
      vertex 124.764 58.25 6.36398
      vertex 126.017 58.25 7.30717
      vertex 126.017 61.75 7.30717
    endloop
  endfacet
  facet normal -0.601214 0 0.799088
    outer loop
      vertex 124.764 58.25 6.36398
      vertex 126.017 61.75 7.30717
      vertex 124.764 61.75 6.36398
    endloop
  endfacet
  facet normal -0.73084 0 0.682549
    outer loop
      vertex 126.017 58.25 7.30717
      vertex 127.088 58.25 8.45371
      vertex 127.088 61.75 8.45371
    endloop
  endfacet
  facet normal -0.73084 0 0.682549
    outer loop
      vertex 126.017 58.25 7.30717
      vertex 127.088 61.75 8.45371
      vertex 126.017 61.75 7.30717
    endloop
  endfacet
  facet normal -0.83826 0 0.54527
    outer loop
      vertex 127.088 58.25 8.45371
      vertex 127.943 58.25 9.76878
      vertex 127.943 61.75 9.76878
    endloop
  endfacet
  facet normal -0.83826 0 0.54527
    outer loop
      vertex 127.088 58.25 8.45371
      vertex 127.943 61.75 9.76878
      vertex 127.088 61.75 8.45371
    endloop
  endfacet
  facet normal -0.920211 0 0.391424
    outer loop
      vertex 127.943 58.25 9.76878
      vertex 128.557 58.25 11.2124
      vertex 128.557 61.75 11.2124
    endloop
  endfacet
  facet normal -0.920211 0 0.391424
    outer loop
      vertex 127.943 58.25 9.76878
      vertex 128.557 61.75 11.2124
      vertex 127.943 61.75 9.76878
    endloop
  endfacet
  facet normal -0.974201 0 0.225684
    outer loop
      vertex 128.557 58.25 11.2124
      vertex 128.911 58.25 12.7407
      vertex 128.911 61.75 12.7407
    endloop
  endfacet
  facet normal -0.974201 0 0.225684
    outer loop
      vertex 128.557 58.25 11.2124
      vertex 128.911 61.75 12.7407
      vertex 128.557 61.75 11.2124
    endloop
  endfacet
  facet normal -0.99859 0 0.0530875
    outer loop
      vertex 128.911 58.25 12.7407
      vertex 128.995 58.25 14.3073
      vertex 128.995 61.75 14.3073
    endloop
  endfacet
  facet normal -0.99859 0 0.0530875
    outer loop
      vertex 128.911 58.25 12.7407
      vertex 128.995 61.75 14.3073
      vertex 128.911 61.75 12.7407
    endloop
  endfacet
  facet normal -0.992638 0 -0.121122
    outer loop
      vertex 128.995 58.25 14.3073
      vertex 128.805 58.25 15.8646
      vertex 128.805 61.75 15.8646
    endloop
  endfacet
  facet normal -0.992638 0 -0.121122
    outer loop
      vertex 128.995 58.25 14.3073
      vertex 128.805 61.75 15.8646
      vertex 128.995 61.75 14.3073
    endloop
  endfacet
  facet normal -0.956525 0 -0.291652
    outer loop
      vertex 128.805 58.25 15.8646
      vertex 128.347 58.25 17.3652
      vertex 128.347 61.75 17.3652
    endloop
  endfacet
  facet normal -0.956525 0 -0.291652
    outer loop
      vertex 128.805 58.25 15.8646
      vertex 128.347 61.75 17.3652
      vertex 128.805 61.75 15.8646
    endloop
  endfacet
  facet normal -0.891348 0 -0.45332
    outer loop
      vertex 128.347 58.25 17.3652
      vertex 127.636 58.25 18.7635
      vertex 127.636 61.75 18.7635
    endloop
  endfacet
  facet normal -0.891348 0 -0.45332
    outer loop
      vertex 128.347 58.25 17.3652
      vertex 127.636 61.75 18.7635
      vertex 128.347 61.75 17.3652
    endloop
  endfacet
  facet normal -0.799088 0 -0.601214
    outer loop
      vertex 127.636 58.25 18.7635
      vertex 126.693 58.25 20.0171
      vertex 126.693 61.75 20.0171
    endloop
  endfacet
  facet normal -0.799088 0 -0.601214
    outer loop
      vertex 127.636 58.25 18.7635
      vertex 126.693 61.75 20.0171
      vertex 127.636 61.75 18.7635
    endloop
  endfacet
  facet normal -0.682549 0 -0.73084
    outer loop
      vertex 126.693 58.25 20.0171
      vertex 125.546 58.25 21.0879
      vertex 125.546 61.75 21.0879
    endloop
  endfacet
  facet normal -0.682549 0 -0.73084
    outer loop
      vertex 126.693 58.25 20.0171
      vertex 125.546 61.75 21.0879
      vertex 126.693 61.75 20.0171
    endloop
  endfacet
  facet normal -0.54527 0 -0.83826
    outer loop
      vertex 125.546 58.25 21.0879
      vertex 124.231 58.25 21.9433
      vertex 124.231 61.75 21.9433
    endloop
  endfacet
  facet normal -0.54527 0 -0.83826
    outer loop
      vertex 125.546 58.25 21.0879
      vertex 124.231 61.75 21.9433
      vertex 125.546 61.75 21.0879
    endloop
  endfacet
  facet normal -0.470136 0 -0.882594
    outer loop
      vertex 124.231 58.25 21.9433
      vertex -34.6357 58.25 106.568
      vertex -34.6357 61.75 106.568
    endloop
  endfacet
  facet normal -0.470136 0 -0.882594
    outer loop
      vertex 124.231 58.25 21.9433
      vertex -34.6357 61.75 106.568
      vertex 124.231 61.75 21.9433
    endloop
  endfacet
  facet normal -0.391424 0 -0.920211
    outer loop
      vertex -34.6357 58.25 106.568
      vertex -36.0793 58.25 107.182
      vertex -36.0793 61.75 107.182
    endloop
  endfacet
  facet normal -0.391424 0 -0.920211
    outer loop
      vertex -34.6357 58.25 106.568
      vertex -36.0793 61.75 107.182
      vertex -34.6357 61.75 106.568
    endloop
  endfacet
  facet normal -0.225684 0 -0.974201
    outer loop
      vertex -36.0793 58.25 107.182
      vertex -37.6077 58.25 107.536
      vertex -37.6077 61.75 107.536
    endloop
  endfacet
  facet normal -0.225684 0 -0.974201
    outer loop
      vertex -36.0793 58.25 107.182
      vertex -37.6077 61.75 107.536
      vertex -36.0793 61.75 107.182
    endloop
  endfacet
  facet normal -0.0530875 0 -0.99859
    outer loop
      vertex -37.6077 58.25 107.536
      vertex -39.1743 58.25 107.619
      vertex -39.1743 61.75 107.619
    endloop
  endfacet
  facet normal -0.0530875 0 -0.99859
    outer loop
      vertex -37.6077 58.25 107.536
      vertex -39.1743 61.75 107.619
      vertex -37.6077 61.75 107.536
    endloop
  endfacet
  facet normal 0.121122 0 -0.992638
    outer loop
      vertex -39.1743 58.25 107.619
      vertex -40.7315 58.25 107.429
      vertex -40.7315 61.75 107.429
    endloop
  endfacet
  facet normal 0.121122 0 -0.992638
    outer loop
      vertex -39.1743 58.25 107.619
      vertex -40.7315 61.75 107.429
      vertex -39.1743 61.75 107.619
    endloop
  endfacet
  facet normal 0.291652 0 -0.956525
    outer loop
      vertex -40.7315 58.25 107.429
      vertex -42.2321 58.25 106.972
      vertex -42.2321 61.75 106.972
    endloop
  endfacet
  facet normal 0.291652 0 -0.956525
    outer loop
      vertex -40.7315 58.25 107.429
      vertex -42.2321 61.75 106.972
      vertex -40.7315 61.75 107.429
    endloop
  endfacet
  facet normal 0.45332 0 -0.891348
    outer loop
      vertex -42.2321 58.25 106.972
      vertex -43.6305 58.25 106.26
      vertex -43.6305 61.75 106.26
    endloop
  endfacet
  facet normal 0.45332 0 -0.891348
    outer loop
      vertex -42.2321 58.25 106.972
      vertex -43.6305 61.75 106.26
      vertex -42.2321 61.75 106.972
    endloop
  endfacet
  facet normal 0.601214 0 -0.799088
    outer loop
      vertex -43.6305 58.25 106.26
      vertex -44.8841 58.25 105.317
      vertex -44.8841 61.75 105.317
    endloop
  endfacet
  facet normal 0.601214 0 -0.799088
    outer loop
      vertex -43.6305 58.25 106.26
      vertex -44.8841 61.75 105.317
      vertex -43.6305 61.75 106.26
    endloop
  endfacet
  facet normal 0.73084 0 -0.682549
    outer loop
      vertex -44.8841 58.25 105.317
      vertex -45.9549 58.25 104.171
      vertex -45.9549 61.75 104.171
    endloop
  endfacet
  facet normal 0.73084 0 -0.682549
    outer loop
      vertex -44.8841 58.25 105.317
      vertex -45.9549 61.75 104.171
      vertex -44.8841 61.75 105.317
    endloop
  endfacet
  facet normal 0.83826 0 -0.54527
    outer loop
      vertex -45.9549 58.25 104.171
      vertex -46.8103 58.25 102.856
      vertex -46.8103 61.75 102.856
    endloop
  endfacet
  facet normal 0.83826 0 -0.54527
    outer loop
      vertex -45.9549 58.25 104.171
      vertex -46.8103 61.75 102.856
      vertex -45.9549 61.75 104.171
    endloop
  endfacet
  facet normal 0.920211 0 -0.391424
    outer loop
      vertex -46.8103 58.25 102.856
      vertex -47.4243 58.25 101.412
      vertex -47.4243 61.75 101.412
    endloop
  endfacet
  facet normal 0.920211 0 -0.391424
    outer loop
      vertex -46.8103 58.25 102.856
      vertex -47.4243 61.75 101.412
      vertex -46.8103 61.75 102.856
    endloop
  endfacet
  facet normal 0.974201 0 -0.225684
    outer loop
      vertex -47.4243 58.25 101.412
      vertex -47.7784 58.25 99.8837
      vertex -47.7784 61.75 99.8837
    endloop
  endfacet
  facet normal 0.974201 0 -0.225684
    outer loop
      vertex -47.4243 58.25 101.412
      vertex -47.7784 61.75 99.8837
      vertex -47.4243 61.75 101.412
    endloop
  endfacet
  facet normal 0.99859 0 -0.0530875
    outer loop
      vertex -47.7784 58.25 99.8837
      vertex -47.8617 58.25 98.3171
      vertex -47.8617 61.75 98.3171
    endloop
  endfacet
  facet normal 0.99859 0 -0.0530875
    outer loop
      vertex -47.7784 58.25 99.8837
      vertex -47.8617 61.75 98.3171
      vertex -47.7784 61.75 99.8837
    endloop
  endfacet
  facet normal 0.992638 0 0.121122
    outer loop
      vertex -47.8617 58.25 98.3171
      vertex -47.6717 58.25 96.7599
      vertex -47.6717 61.75 96.7599
    endloop
  endfacet
  facet normal 0.992638 -0 0.121122
    outer loop
      vertex -47.8617 58.25 98.3171
      vertex -47.6717 61.75 96.7599
      vertex -47.8617 61.75 98.3171
    endloop
  endfacet
  facet normal 0.956525 0 0.291652
    outer loop
      vertex -47.6717 58.25 96.7599
      vertex -47.2141 58.25 95.2593
      vertex -47.2141 61.75 95.2593
    endloop
  endfacet
  facet normal 0.956525 -0 0.291652
    outer loop
      vertex -47.6717 58.25 96.7599
      vertex -47.2141 61.75 95.2593
      vertex -47.6717 61.75 96.7599
    endloop
  endfacet
  facet normal 0.891348 0 0.45332
    outer loop
      vertex -47.2141 58.25 95.2593
      vertex -46.5029 58.25 93.8609
      vertex -46.5029 61.75 93.8609
    endloop
  endfacet
  facet normal 0.891348 -0 0.45332
    outer loop
      vertex -47.2141 58.25 95.2593
      vertex -46.5029 61.75 93.8609
      vertex -47.2141 61.75 95.2593
    endloop
  endfacet
  facet normal 0.799088 0 0.601214
    outer loop
      vertex -46.5029 58.25 93.8609
      vertex -45.5598 58.25 92.6073
      vertex -45.5598 61.75 92.6073
    endloop
  endfacet
  facet normal 0.799088 -0 0.601214
    outer loop
      vertex -46.5029 58.25 93.8609
      vertex -45.5598 61.75 92.6073
      vertex -46.5029 61.75 93.8609
    endloop
  endfacet
  facet normal 0.682549 0 0.73084
    outer loop
      vertex -45.5598 58.25 92.6073
      vertex -44.4132 58.25 91.5365
      vertex -44.4132 61.75 91.5365
    endloop
  endfacet
  facet normal 0.682549 -0 0.73084
    outer loop
      vertex -45.5598 58.25 92.6073
      vertex -44.4132 61.75 91.5365
      vertex -45.5598 61.75 92.6073
    endloop
  endfacet
  facet normal 0.54527 0 0.83826
    outer loop
      vertex -44.4132 58.25 91.5365
      vertex -43.0982 58.25 90.6811
      vertex -43.0982 61.75 90.6811
    endloop
  endfacet
  facet normal 0.54527 -0 0.83826
    outer loop
      vertex -44.4132 58.25 91.5365
      vertex -43.0982 61.75 90.6811
      vertex -44.4132 61.75 91.5365
    endloop
  endfacet
  facet normal 0.470136 0 0.882594
    outer loop
      vertex -43.0982 58.25 90.6811
      vertex 115.769 58.25 6.05665
      vertex 115.769 61.75 6.05665
    endloop
  endfacet
  facet normal 0.470136 -0 0.882594
    outer loop
      vertex -43.0982 58.25 90.6811
      vertex 115.769 61.75 6.05665
      vertex -43.0982 61.75 90.6811
    endloop
  endfacet
  facet normal 0 1 0
    outer loop
      vertex 40.5665 58.25 56.3122
      vertex 117.212 58.25 5.44259
      vertex 115.769 58.25 6.05665
    endloop
  endfacet
  facet normal 0 -1 0
    outer loop
      vertex 40.5665 61.75 56.3122
      vertex 115.769 61.75 6.05665
      vertex 117.212 61.75 5.44259
    endloop
  endfacet
  facet normal 0 1 0
    outer loop
      vertex 40.5665 58.25 56.3122
      vertex 118.741 58.25 5.08853
      vertex 117.212 58.25 5.44259
    endloop
  endfacet
  facet normal 0 -1 0
    outer loop
      vertex 40.5665 61.75 56.3122
      vertex 117.212 61.75 5.44259
      vertex 118.741 61.75 5.08853
    endloop
  endfacet
  facet normal 0 1 0
    outer loop
      vertex 40.5665 58.25 56.3122
      vertex 120.307 58.25 5.00525
      vertex 118.741 58.25 5.08853
    endloop
  endfacet
  facet normal 0 -1 0
    outer loop
      vertex 40.5665 61.75 56.3122
      vertex 118.741 61.75 5.08853
      vertex 120.307 61.75 5.00525
    endloop
  endfacet
  facet normal 0 1 0
    outer loop
      vertex 40.5665 58.25 56.3122
      vertex 121.865 58.25 5.19527
      vertex 120.307 58.25 5.00525
    endloop
  endfacet
  facet normal 0 -1 0
    outer loop
      vertex 40.5665 61.75 56.3122
      vertex 120.307 61.75 5.00525
      vertex 121.865 61.75 5.19527
    endloop
  endfacet
  facet normal 0 1 0
    outer loop
      vertex 40.5665 58.25 56.3122
      vertex 123.365 58.25 5.65281
      vertex 121.865 58.25 5.19527
    endloop
  endfacet
  facet normal 0 -1 0
    outer loop
      vertex 40.5665 61.75 56.3122
      vertex 121.865 61.75 5.19527
      vertex 123.365 61.75 5.65281
    endloop
  endfacet
  facet normal 0 1 0
    outer loop
      vertex 40.5665 58.25 56.3122
      vertex 124.764 58.25 6.36398
      vertex 123.365 58.25 5.65281
    endloop
  endfacet
  facet normal 0 -1 0
    outer loop
      vertex 40.5665 61.75 56.3122
      vertex 123.365 61.75 5.65281
      vertex 124.764 61.75 6.36398
    endloop
  endfacet
  facet normal 0 1 0
    outer loop
      vertex 40.5665 58.25 56.3122
      vertex 126.017 58.25 7.30717
      vertex 124.764 58.25 6.36398
    endloop
  endfacet
  facet normal 0 -1 0
    outer loop
      vertex 40.5665 61.75 56.3122
      vertex 124.764 61.75 6.36398
      vertex 126.017 61.75 7.30717
    endloop
  endfacet
  facet normal 0 1 0
    outer loop
      vertex 40.5665 58.25 56.3122
      vertex 127.088 58.25 8.45371
      vertex 126.017 58.25 7.30717
    endloop
  endfacet
  facet normal 0 -1 0
    outer loop
      vertex 40.5665 61.75 56.3122
      vertex 126.017 61.75 7.30717
      vertex 127.088 61.75 8.45371
    endloop
  endfacet
  facet normal 0 1 0
    outer loop
      vertex 40.5665 58.25 56.3122
      vertex 127.943 58.25 9.76878
      vertex 127.088 58.25 8.45371
    endloop
  endfacet
  facet normal 0 -1 0
    outer loop
      vertex 40.5665 61.75 56.3122
      vertex 127.088 61.75 8.45371
      vertex 127.943 61.75 9.76878
    endloop
  endfacet
  facet normal 0 1 0
    outer loop
      vertex 40.5665 58.25 56.3122
      vertex 128.557 58.25 11.2124
      vertex 127.943 58.25 9.76878
    endloop
  endfacet
  facet normal 0 -1 0
    outer loop
      vertex 40.5665 61.75 56.3122
      vertex 127.943 61.75 9.76878
      vertex 128.557 61.75 11.2124
    endloop
  endfacet
  facet normal 0 1 0
    outer loop
      vertex 40.5665 58.25 56.3122
      vertex 128.911 58.25 12.7407
      vertex 128.557 58.25 11.2124
    endloop
  endfacet
  facet normal 0 -1 0
    outer loop
      vertex 40.5665 61.75 56.3122
      vertex 128.557 61.75 11.2124
      vertex 128.911 61.75 12.7407
    endloop
  endfacet
  facet normal 0 1 0
    outer loop
      vertex 40.5665 58.25 56.3122
      vertex 128.995 58.25 14.3073
      vertex 128.911 58.25 12.7407
    endloop
  endfacet
  facet normal 0 -1 0
    outer loop
      vertex 40.5665 61.75 56.3122
      vertex 128.911 61.75 12.7407
      vertex 128.995 61.75 14.3073
    endloop
  endfacet
  facet normal 0 1 0
    outer loop
      vertex 40.5665 58.25 56.3122
      vertex 128.805 58.25 15.8646
      vertex 128.995 58.25 14.3073
    endloop
  endfacet
  facet normal 0 -1 0
    outer loop
      vertex 40.5665 61.75 56.3122
      vertex 128.995 61.75 14.3073
      vertex 128.805 61.75 15.8646
    endloop
  endfacet
  facet normal 0 1 0
    outer loop
      vertex 40.5665 58.25 56.3122
      vertex 128.347 58.25 17.3652
      vertex 128.805 58.25 15.8646
    endloop
  endfacet
  facet normal 0 -1 0
    outer loop
      vertex 40.5665 61.75 56.3122
      vertex 128.805 61.75 15.8646
      vertex 128.347 61.75 17.3652
    endloop
  endfacet
  facet normal 0 1 0
    outer loop
      vertex 40.5665 58.25 56.3122
      vertex 127.636 58.25 18.7635
      vertex 128.347 58.25 17.3652
    endloop
  endfacet
  facet normal 0 -1 0
    outer loop
      vertex 40.5665 61.75 56.3122
      vertex 128.347 61.75 17.3652
      vertex 127.636 61.75 18.7635
    endloop
  endfacet
  facet normal 0 1 0
    outer loop
      vertex 40.5665 58.25 56.3122
      vertex 126.693 58.25 20.0171
      vertex 127.636 58.25 18.7635
    endloop
  endfacet
  facet normal 0 -1 0
    outer loop
      vertex 40.5665 61.75 56.3122
      vertex 127.636 61.75 18.7635
      vertex 126.693 61.75 20.0171
    endloop
  endfacet
  facet normal 0 1 0
    outer loop
      vertex 40.5665 58.25 56.3122
      vertex 125.546 58.25 21.0879
      vertex 126.693 58.25 20.0171
    endloop
  endfacet
  facet normal 0 -1 0
    outer loop
      vertex 40.5665 61.75 56.3122
      vertex 126.693 61.75 20.0171
      vertex 125.546 61.75 21.0879
    endloop
  endfacet
  facet normal 0 1 0
    outer loop
      vertex 40.5665 58.25 56.3122
      vertex 124.231 58.25 21.9433
      vertex 125.546 58.25 21.0879
    endloop
  endfacet
  facet normal 0 -1 0
    outer loop
      vertex 40.5665 61.75 56.3122
      vertex 125.546 61.75 21.0879
      vertex 124.231 61.75 21.9433
    endloop
  endfacet
  facet normal -0 1 -0
    outer loop
      vertex 40.5665 58.25 56.3122
      vertex -34.6357 58.25 106.568
      vertex 124.231 58.25 21.9433
    endloop
  endfacet
  facet normal 0 -1 0
    outer loop
      vertex 40.5665 61.75 56.3122
      vertex 124.231 61.75 21.9433
      vertex -34.6357 61.75 106.568
    endloop
  endfacet
  facet normal 0 1 0
    outer loop
      vertex 40.5665 58.25 56.3122
      vertex -36.0793 58.25 107.182
      vertex -34.6357 58.25 106.568
    endloop
  endfacet
  facet normal 0 -1 0
    outer loop
      vertex 40.5665 61.75 56.3122
      vertex -34.6357 61.75 106.568
      vertex -36.0793 61.75 107.182
    endloop
  endfacet
  facet normal 0 1 0
    outer loop
      vertex 40.5665 58.25 56.3122
      vertex -37.6077 58.25 107.536
      vertex -36.0793 58.25 107.182
    endloop
  endfacet
  facet normal 0 -1 0
    outer loop
      vertex 40.5665 61.75 56.3122
      vertex -36.0793 61.75 107.182
      vertex -37.6077 61.75 107.536
    endloop
  endfacet
  facet normal 0 1 0
    outer loop
      vertex 40.5665 58.25 56.3122
      vertex -39.1743 58.25 107.619
      vertex -37.6077 58.25 107.536
    endloop
  endfacet
  facet normal 0 -1 0
    outer loop
      vertex 40.5665 61.75 56.3122
      vertex -37.6077 61.75 107.536
      vertex -39.1743 61.75 107.619
    endloop
  endfacet
  facet normal 0 1 0
    outer loop
      vertex 40.5665 58.25 56.3122
      vertex -40.7315 58.25 107.429
      vertex -39.1743 58.25 107.619
    endloop
  endfacet
  facet normal 0 -1 0
    outer loop
      vertex 40.5665 61.75 56.3122
      vertex -39.1743 61.75 107.619
      vertex -40.7315 61.75 107.429
    endloop
  endfacet
  facet normal 0 1 0
    outer loop
      vertex 40.5665 58.25 56.3122
      vertex -42.2321 58.25 106.972
      vertex -40.7315 58.25 107.429
    endloop
  endfacet
  facet normal 0 -1 0
    outer loop
      vertex 40.5665 61.75 56.3122
      vertex -40.7315 61.75 107.429
      vertex -42.2321 61.75 106.972
    endloop
  endfacet
  facet normal 0 1 0
    outer loop
      vertex 40.5665 58.25 56.3122
      vertex -43.6305 58.25 106.26
      vertex -42.2321 58.25 106.972
    endloop
  endfacet
  facet normal 0 -1 0
    outer loop
      vertex 40.5665 61.75 56.3122
      vertex -42.2321 61.75 106.972
      vertex -43.6305 61.75 106.26
    endloop
  endfacet
  facet normal 0 1 0
    outer loop
      vertex 40.5665 58.25 56.3122
      vertex -44.8841 58.25 105.317
      vertex -43.6305 58.25 106.26
    endloop
  endfacet
  facet normal 0 -1 0
    outer loop
      vertex 40.5665 61.75 56.3122
      vertex -43.6305 61.75 106.26
      vertex -44.8841 61.75 105.317
    endloop
  endfacet
  facet normal 0 1 0
    outer loop
      vertex 40.5665 58.25 56.3122
      vertex -45.9549 58.25 104.171
      vertex -44.8841 58.25 105.317
    endloop
  endfacet
  facet normal 0 -1 0
    outer loop
      vertex 40.5665 61.75 56.3122
      vertex -44.8841 61.75 105.317
      vertex -45.9549 61.75 104.171
    endloop
  endfacet
  facet normal 0 1 0
    outer loop
      vertex 40.5665 58.25 56.3122
      vertex -46.8103 58.25 102.856
      vertex -45.9549 58.25 104.171
    endloop
  endfacet
  facet normal 0 -1 0
    outer loop
      vertex 40.5665 61.75 56.3122
      vertex -45.9549 61.75 104.171
      vertex -46.8103 61.75 102.856
    endloop
  endfacet
  facet normal 0 1 0
    outer loop
      vertex 40.5665 58.25 56.3122
      vertex -47.4243 58.25 101.412
      vertex -46.8103 58.25 102.856
    endloop
  endfacet
  facet normal 0 -1 0
    outer loop
      vertex 40.5665 61.75 56.3122
      vertex -46.8103 61.75 102.856
      vertex -47.4243 61.75 101.412
    endloop
  endfacet
  facet normal 0 1 0
    outer loop
      vertex 40.5665 58.25 56.3122
      vertex -47.7784 58.25 99.8837
      vertex -47.4243 58.25 101.412
    endloop
  endfacet
  facet normal 0 -1 0
    outer loop
      vertex 40.5665 61.75 56.3122
      vertex -47.4243 61.75 101.412
      vertex -47.7784 61.75 99.8837
    endloop
  endfacet
  facet normal 0 1 0
    outer loop
      vertex 40.5665 58.25 56.3122
      vertex -47.8617 58.25 98.3171
      vertex -47.7784 58.25 99.8837
    endloop
  endfacet
  facet normal 0 -1 0
    outer loop
      vertex 40.5665 61.75 56.3122
      vertex -47.7784 61.75 99.8837
      vertex -47.8617 61.75 98.3171
    endloop
  endfacet
  facet normal 0 1 0
    outer loop
      vertex 40.5665 58.25 56.3122
      vertex -47.6717 58.25 96.7599
      vertex -47.8617 58.25 98.3171
    endloop
  endfacet
  facet normal 0 -1 0
    outer loop
      vertex 40.5665 61.75 56.3122
      vertex -47.8617 61.75 98.3171
      vertex -47.6717 61.75 96.7599
    endloop
  endfacet
  facet normal 0 1 0
    outer loop
      vertex 40.5665 58.25 56.3122
      vertex -47.2141 58.25 95.2593
      vertex -47.6717 58.25 96.7599
    endloop
  endfacet
  facet normal 0 -1 0
    outer loop
      vertex 40.5665 61.75 56.3122
      vertex -47.6717 61.75 96.7599
      vertex -47.2141 61.75 95.2593
    endloop
  endfacet
  facet normal 0 1 0
    outer loop
      vertex 40.5665 58.25 56.3122
      vertex -46.5029 58.25 93.8609
      vertex -47.2141 58.25 95.2593
    endloop
  endfacet
  facet normal 0 -1 0
    outer loop
      vertex 40.5665 61.75 56.3122
      vertex -47.2141 61.75 95.2593
      vertex -46.5029 61.75 93.8609
    endloop
  endfacet
  facet normal 0 1 0
    outer loop
      vertex 40.5665 58.25 56.3122
      vertex -45.5598 58.25 92.6073
      vertex -46.5029 58.25 93.8609
    endloop
  endfacet
  facet normal 0 -1 0
    outer loop
      vertex 40.5665 61.75 56.3122
      vertex -46.5029 61.75 93.8609
      vertex -45.5598 61.75 92.6073
    endloop
  endfacet
  facet normal 0 1 0
    outer loop
      vertex 40.5665 58.25 56.3122
      vertex -44.4132 58.25 91.5365
      vertex -45.5598 58.25 92.6073
    endloop
  endfacet
  facet normal 0 -1 0
    outer loop
      vertex 40.5665 61.75 56.3122
      vertex -45.5598 61.75 92.6073
      vertex -44.4132 61.75 91.5365
    endloop
  endfacet
  facet normal 0 1 0
    outer loop
      vertex 40.5665 58.25 56.3122
      vertex -43.0982 58.25 90.6811
      vertex -44.4132 58.25 91.5365
    endloop
  endfacet
  facet normal 0 -1 0
    outer loop
      vertex 40.5665 61.75 56.3122
      vertex -44.4132 61.75 91.5365
      vertex -43.0982 61.75 90.6811
    endloop
  endfacet
  facet normal 0 1 0
    outer loop
      vertex 40.5665 58.25 56.3122
      vertex 115.769 58.25 6.05665
      vertex -43.0982 58.25 90.6811
    endloop
  endfacet
  facet normal -0 -1 -0
    outer loop
      vertex 40.5665 61.75 56.3122
      vertex -43.0982 61.75 90.6811
      vertex 115.769 61.75 6.05665
    endloop
  endfacet
endsolid L5_rear_rocker_H2_F_R
