solid servo
  facet normal 0 0 1
    outer loop
      vertex 116 -11 77.5
      vertex 154 -11 77.5
      vertex 154 11 77.5
    endloop
  endfacet
  facet normal 0 0 1
    outer loop
      vertex 116 -11 77.5
      vertex 154 11 77.5
      vertex 116 11 77.5
    endloop
  endfacet
  facet normal 0 0 -1
    outer loop
      vertex 116 -11 112.5
      vertex 116 11 112.5
      vertex 154 11 112.5
    endloop
  endfacet
  facet normal 0 0 -1
    outer loop
      vertex 116 -11 112.5
      vertex 154 11 112.5
      vertex 154 -11 112.5
    endloop
  endfacet
  facet normal 0 1 0
    outer loop
      vertex 116 -11 77.5
      vertex 116 -11 112.5
      vertex 154 -11 112.5
    endloop
  endfacet
  facet normal 0 1 0
    outer loop
      vertex 116 -11 77.5
      vertex 154 -11 112.5
      vertex 154 -11 77.5
    endloop
  endfacet
  facet normal -1 0 0
    outer loop
      vertex 154 -11 77.5
      vertex 154 -11 112.5
      vertex 154 11 112.5
    endloop
  endfacet
  facet normal -1 0 0
    outer loop
      vertex 154 -11 77.5
      vertex 154 11 112.5
      vertex 154 11 77.5
    endloop
  endfacet
  facet normal 0 -1 0
    outer loop
      vertex 154 11 77.5
      vertex 154 11 112.5
      vertex 116 11 112.5
    endloop
  endfacet
  facet normal 0 -1 0
    outer loop
      vertex 154 11 77.5
      vertex 116 11 112.5
      vertex 116 11 77.5
    endloop
  endfacet
  facet normal 1 0 -0
    outer loop
      vertex 116 11 77.5
      vertex 116 11 112.5
      vertex 116 -11 112.5
    endloop
  endfacet
  facet normal 1 0 0
    outer loop
      vertex 116 11 77.5
      vertex 116 -11 112.5
      vertex 116 -11 77.5
    endloop
  endfacet
  facet normal 0 0 1
    outer loop
      vertex 111 -2 99
      vertex 129 -2 99
      vertex 129 2 99
    endloop
  endfacet
  facet normal 0 0 1
    outer loop
      vertex 111 -2 99
      vertex 129 2 99
      vertex 111 2 99
    endloop
  endfacet
  facet normal 0 0 -1
    outer loop
      vertex 111 -2 137
      vertex 111 2 137
      vertex 129 2 137
    endloop
  endfacet
  facet normal 0 0 -1
    outer loop
      vertex 111 -2 137
      vertex 129 2 137
      vertex 129 -2 137
    endloop
  endfacet
  facet normal 0 1 0
    outer loop
      vertex 111 -2 99
      vertex 111 -2 137
      vertex 129 -2 137
    endloop
  endfacet
  facet normal 0 1 0
    outer loop
      vertex 111 -2 99
      vertex 129 -2 137
      vertex 129 -2 99
    endloop
  endfacet
  facet normal -1 0 0
    outer loop
      vertex 129 -2 99
      vertex 129 -2 137
      vertex 129 2 137
    endloop
  endfacet
  facet normal -1 0 0
    outer loop
      vertex 129 -2 99
      vertex 129 2 137
      vertex 129 2 99
    endloop
  endfacet
  facet normal 0 -1 0
    outer loop
      vertex 129 2 99
      vertex 129 2 137
      vertex 111 2 137
    endloop
  endfacet
  facet normal 0 -1 0
    outer loop
      vertex 129 2 99
      vertex 111 2 137
      vertex 111 2 99
    endloop
  endfacet
  facet normal 1 0 -0
    outer loop
      vertex 111 2 99
      vertex 111 2 137
      vertex 111 -2 137
    endloop
  endfacet
  facet normal 1 0 0
    outer loop
      vertex 111 2 99
      vertex 111 -2 137
      vertex 111 -2 99
    endloop
  endfacet
endsolid servo
